<?xml version="1.0" standalone="no"?><!DOCTYPE svg PUBLIC "-//W3C//DTD SVG 1.1//EN" "http://www.w3.org/Graphics/SVG/1.1/DTD/svg11.dtd"><svg class="icon" width="200px" height="200.00px" viewBox="0 0 1024 1024" version="1.1" xmlns="http://www.w3.org/2000/svg"><path d="M556.3392 873.984c-18.3808-6.144-36.7616 6.144-42.8544 18.3808-12.2368 36.7616-42.9056 61.2352-79.616 61.2352-42.9056 0-79.616-36.7616-85.76-79.616h85.76c18.3808 0 30.6176-12.2368 30.6176-30.6176 0-18.3808-12.2368-30.6176-30.6176-30.6176H121.3952c48.9984-79.616 55.1424-189.9008 55.1424-385.9456 0-159.2832 104.1408-214.4256 196.0448-232.7552 12.2368 0 24.5248-18.3808 24.5248-30.6176v-30.6176c0-18.3808 18.3808-36.7616 36.7616-36.7616s36.7616 18.3808 36.7616 36.7616v30.6176c0 12.2368 12.2368 24.5248 24.4736 30.6176 36.7616 6.144 91.904 24.5248 134.7584 67.3792 12.2368 12.2368 30.6176 12.2368 42.9056 0 12.2368-12.2368 12.2368-30.6176 0-42.8544-42.9056-42.9056-97.9968-67.3792-140.9024-79.616v-6.144c0-55.1424-42.9056-97.9968-97.9968-97.9968-55.1424 0-97.9968 42.9056-97.9968 97.9968v6.144c-91.904 24.5248-220.5184 97.9968-220.5184 287.8976 0 251.136-18.3808 336.896-79.616 392.0384-12.2368 12.2368-12.2368 24.5248-12.2368 36.7616 0 12.2368 18.3808 18.3808 30.6176 18.3808h232.7552c6.144 79.616 67.3792 140.9024 146.9952 140.9024 67.3792 0 122.5216-42.9056 140.9024-104.1408 6.0928-12.3392-6.1952-30.72-18.432-36.8128z m0 0M703.3344 291.9936c-165.376 0-300.1856 128.6656-300.1856 294.0416s134.7584 300.1856 300.1856 300.1856c165.376 0 300.1856-134.7584 300.1856-300.1856 0-165.376-134.7584-294.0416-300.1856-294.0416z m0 532.992c-128.6656 0-238.8992-104.1408-238.8992-238.8992 0-134.7584 110.2848-232.8064 238.8992-232.8064 128.6656 0 238.8992 104.1408 238.8992 232.8064 0.0512 128.6144-104.0896 238.8992-238.8992 238.8992z m0 0M824.7808 616.2432h-140.9024V481.4848c0-18.3808-12.2368-30.6176-30.6176-30.6176-18.3808 0-30.6176 12.2368-30.6176 30.6176v202.1376h202.1376c18.3808 0 30.6176-12.2368 30.6176-30.6176 0-18.3808-12.288-36.7616-30.6176-36.7616z m0 0" /></svg>