<?xml version="1.0" standalone="no"?><!DOCTYPE svg PUBLIC "-//W3C//DTD SVG 1.1//EN" "http://www.w3.org/Graphics/SVG/1.1/DTD/svg11.dtd"><svg class="icon" width="200px" height="200.00px" viewBox="0 0 1024 1024" version="1.1" xmlns="http://www.w3.org/2000/svg"><path d="M954.5728 940.4416H90.7264c-30.2592 0-54.8864-25.344-54.8864-56.4736V142.7968a28.4672 28.4672 0 0 1 56.9344 0v740.6592h861.7472c15.7184 0 28.4672 12.7488 28.4672 28.4672s-12.6976 28.5184-28.416 28.5184zM460.3904 731.6992c-18.0224 0-34.304-10.3424-41.8816-26.9312l-73.6768-161.1776-52.3264 80.4864c-15.616 24.064-45.6192 24.32-63.8976 24.32h-50.3808a28.4672 28.4672 0 0 1 0-56.9344h49.152c4.9664 0.0512 14.5408 0 19.0464-1.1264l68.2496-105.0112a39.0656 39.0656 0 0 1 35.6864-17.7152c14.2336 1.024 26.7776 9.7792 32.7168 22.7328l75.6224 165.4784 124.6208-379.4944a38.51776 38.51776 0 0 1 36.4032-26.5216h0.2048c16.4864 0 31.1296 10.496 36.4544 26.112l103.168 303.4112c1.024 2.9696 3.7888 4.9664 6.9632 4.9664h152.3712a28.4672 28.4672 0 0 1 0 56.9344h-152.3712c-27.5456 0-52.0192-17.5104-60.8768-43.6224L620.288 346.624l-116.0192 353.3824a45.8752 45.8752 0 0 1-41.2672 31.6416c-0.8704 0.0512-1.7408 0.0512-2.6112 0.0512z" /></svg>