<?xml version="1.0" standalone="no"?><!DOCTYPE svg PUBLIC "-//W3C//DTD SVG 1.1//EN" "http://www.w3.org/Graphics/SVG/1.1/DTD/svg11.dtd"><svg t="1557195947090" class="icon" style="" viewBox="0 0 1024 1024" version="1.1" xmlns="http://www.w3.org/2000/svg" p-id="13086" xmlns:xlink="http://www.w3.org/1999/xlink" width="200" height="200"><defs><style type="text/css"></style></defs><path d="M562.961037 1023.293793l-114.988138 0c-15.889655 0-28.760276-12.83531-28.760276-28.65434501l0-658.78510299c0-15.819034 12.888276-28.654345 28.760276-28.654345l114.988138 0c15.889655 0 28.742621 12.83531 28.742621 28.654345L591.703658 994.639448c0 15.819034-12.870621 28.654345-28.742621 28.654345z" fill="#FF5959" p-id="13087"></path><path d="M820.655934 463.183448c12.747034 19.032276-0.953379 44.52634501-23.905104 44.526345L214.165451 507.709793c-22.951724 0-36.65213799-25.494069-23.922759-44.526345l291.310345-435.288276a28.795586 28.795586 0 0 1 47.845517 0L820.638279 463.183448z" fill="#FF5959" p-id="13088"></path></svg>