<?xml version="1.0" standalone="no"?><!DOCTYPE svg PUBLIC "-//W3C//DTD SVG 1.1//EN" "http://www.w3.org/Graphics/SVG/1.1/DTD/svg11.dtd"><svg t="1557196301276" class="icon" style="" viewBox="0 0 1024 1024" version="1.1" xmlns="http://www.w3.org/2000/svg" p-id="1733" xmlns:xlink="http://www.w3.org/1999/xlink" width="200" height="200"><defs><style type="text/css"></style></defs><path d="M555.507195 53.539995c14.794885 0 26.787844 11.945368 26.787844 26.680765v613.883636c0 14.741345-11.981061 26.70456-26.787844 26.70456H448.355818c-14.794885 0-26.799742-11.963214-26.799742-26.70456V80.22076c0-14.741345 11.992959-26.680764 26.799742-26.680765h107.151377z m0 0" p-id="1734"></path><path d="M524.245787 981.072822c-4.97922 7.43611-13.343357 11.897777-22.290485 11.897776-8.953077 0-17.311265-4.461666-22.290485-11.897776L208.193246 575.453818c-11.862083-17.739585 0.904231-41.493496 22.290485-41.493497h542.871756c21.392203 0 34.158517 23.753911 22.278587 41.493497l-271.388287 405.619004z m271.394236-405.619004" p-id="1735"></path></svg>