<?xml version="1.0" standalone="no"?><!DOCTYPE svg PUBLIC "-//W3C//DTD SVG 1.1//EN" "http://www.w3.org/Graphics/SVG/1.1/DTD/svg11.dtd"><svg class="icon" width="200px" height="200.00px" viewBox="0 0 1024 1024" version="1.1" xmlns="http://www.w3.org/2000/svg"><path d="M271.5 482.9h103v45.3h-103v-45.3z m145 175.5h103v45.3h-103v-45.3z m-145 0h103v45.3h-103v-45.3z m0-351h103v45.3h-103v-45.3z m145 0h103v45.3h-103v-45.3z m0 0M96 855.2v-45.3h58.3V279.5c0-60.9 49.2-110.7 110.1-110.7h262.3c60.9 0 110.1 49.9 110.1 110.7v88.1h123c60.9 0 110.1 49.9 110.1 110.7v331.6h58.3v45.3H96z m540.1-46.6h187.1V478.3c0-35.6-29.1-64.8-64.8-64.8h-123v395h0.7zM264.4 214.1c-35.6 0-64.8 29.1-64.8 65.4v530.4h391.8V279.5c0-36.3-29.1-65.4-64.8-65.4H264.4z m0 0M678.2 550.9h103v45.3h-103v-45.3z m-261.7-68h103v45.3h-103v-45.3z m261.7 184.5h103v45.3h-103v-45.3z m0 0" /></svg>
