<?xml version="1.0" standalone="no"?><!DOCTYPE svg PUBLIC "-//W3C//DTD SVG 1.1//EN" "http://www.w3.org/Graphics/SVG/1.1/DTD/svg11.dtd"><svg t="1581412522188" class="icon" viewBox="0 0 1024 1024" version="1.1" xmlns="http://www.w3.org/2000/svg" p-id="1493" xmlns:xlink="http://www.w3.org/1999/xlink" width="200" height="200"><defs><style type="text/css"></style></defs><path d="M962.56 305.4592H58.2656c-11.264 0-20.48-9.216-20.48-20.48v-44.544c0-11.264 9.216-20.48 20.48-20.48H962.56c11.264 0 20.48 9.216 20.48 20.48v44.544c0 11.264-9.216 20.48-20.48 20.48z" p-id="1494"></path><path d="M730.7264 291.2256h-85.2992v-57.0368c0-70.7584-57.344-128.2048-127.8976-128.2048h-14.2336c-70.5536 0-127.8976 57.5488-127.8976 128.2048v57.0368h-85.2992v-57.0368C290.0992 116.3264 385.7408 20.48 503.296 20.48h14.2336c117.5552 0 213.1968 95.8464 213.1968 213.7088v57.0368zM736.256 1003.6224H284.4672c-67.4816 0-122.368-59.2896-122.368-132.096V305.4592h85.2992v566.0672c0 25.2928 16.9984 46.592 37.0688 46.592H736.256c20.0704 0 37.0688-21.4016 37.0688-46.592V305.4592h85.2992v566.0672c0 72.8064-54.8864 132.096-122.368 132.096z" p-id="1495"></path><path d="M381.0304 832.6144h-23.8592c-16.896 0-30.72-13.824-30.72-30.72V549.888c0-16.896 13.824-30.72 30.72-30.72h23.8592c16.896 0 30.72 13.824 30.72 30.72v252.0064c0 16.896-13.824 30.72-30.72 30.72zM523.1616 832.6144h-23.8592c-16.896 0-30.72-13.824-30.72-30.72V549.888c0-16.896 13.824-30.72 30.72-30.72h23.8592c16.896 0 30.72 13.824 30.72 30.72v252.0064c0 16.896-13.824 30.72-30.72 30.72zM665.3952 832.6144h-23.8592c-16.896 0-30.72-13.824-30.72-30.72V549.888c0-16.896 13.824-30.72 30.72-30.72h23.8592c16.896 0 30.72 13.824 30.72 30.72v252.0064c0 16.896-13.824 30.72-30.72 30.72z" p-id="1496"></path></svg>