<?xml version="1.0" standalone="no"?><!DOCTYPE svg PUBLIC "-//W3C//DTD SVG 1.1//EN" "http://www.w3.org/Graphics/SVG/1.1/DTD/svg11.dtd"><svg class="icon" width="200px" height="200.00px" viewBox="0 0 1024 1024" version="1.1" xmlns="http://www.w3.org/2000/svg"><path d="M862.976 1001.6256H159.9488c-43.6224 0-79.104-35.4816-79.104-79.104V191.2832c0-43.6224 35.4816-79.104 79.104-79.104h703.0272c43.6224 0 79.104 35.4816 79.104 79.104v731.2384c0 43.6224-35.4816 79.104-79.104 79.104zM159.9488 179.2512c-6.656 0-12.032 5.376-12.032 12.032v731.2384c0 6.656 5.376 12.032 12.032 12.032h703.0272c6.656 0 12.032-5.376 12.032-12.032V191.2832c0-6.656-5.376-12.032-12.032-12.032H159.9488zM361.2672 475.2896H243.8656c-9.2672 0-16.7936-7.5264-16.7936-16.7936v-50.3296c0-9.2672 7.5264-16.7936 16.7936-16.7936h117.4016c9.2672 0 16.7936 7.5264 16.7936 16.7936v50.3296c0 9.2672-7.5264 16.7936-16.7936 16.7936zM570.1632 475.2896H452.7616c-9.2672 0-16.7936-7.5264-16.7936-16.7936v-50.3296c0-9.2672 7.5264-16.7936 16.7936-16.7936h117.4016c9.2672 0 16.7936 7.5264 16.7936 16.7936v50.3296a16.83456 16.83456 0 0 1-16.7936 16.7936zM779.008 475.2896h-117.4016c-9.2672 0-16.7936-7.5264-16.7936-16.7936v-50.3296c0-9.2672 7.5264-16.7936 16.7936-16.7936h117.4016c9.2672 0 16.7936 7.5264 16.7936 16.7936v50.3296c0 9.2672-7.5264 16.7936-16.7936 16.7936zM361.2672 651.3664H243.8656c-9.2672 0-16.7936-7.5264-16.7936-16.7936v-50.3296c0-9.2672 7.5264-16.7936 16.7936-16.7936h117.4016c9.2672 0 16.7936 7.5264 16.7936 16.7936v50.3296c0 9.2672-7.5264 16.7936-16.7936 16.7936zM570.1632 651.3664H452.7616c-9.2672 0-16.7936-7.5264-16.7936-16.7936v-50.3296c0-9.2672 7.5264-16.7936 16.7936-16.7936h117.4016c9.2672 0 16.7936 7.5264 16.7936 16.7936v50.3296a16.83456 16.83456 0 0 1-16.7936 16.7936zM779.008 651.3664h-117.4016c-9.2672 0-16.7936-7.5264-16.7936-16.7936v-50.3296c0-9.2672 7.5264-16.7936 16.7936-16.7936h117.4016c9.2672 0 16.7936 7.5264 16.7936 16.7936v50.3296c0 9.2672-7.5264 16.7936-16.7936 16.7936zM361.2672 810.7008H243.8656c-9.2672 0-16.7936-7.5264-16.7936-16.7936v-50.3296c0-9.2672 7.5264-16.7936 16.7936-16.7936h117.4016c9.2672 0 16.7936 7.5264 16.7936 16.7936v50.3296c0 9.2672-7.5264 16.7936-16.7936 16.7936zM570.1632 810.7008H452.7616c-9.2672 0-16.7936-7.5264-16.7936-16.7936v-50.3296c0-9.2672 7.5264-16.7936 16.7936-16.7936h117.4016c9.2672 0 16.7936 7.5264 16.7936 16.7936v50.3296a16.83456 16.83456 0 0 1-16.7936 16.7936zM779.008 810.7008h-117.4016c-9.2672 0-16.7936-7.5264-16.7936-16.7936v-50.3296c0-9.2672 7.5264-16.7936 16.7936-16.7936h117.4016c9.2672 0 16.7936 7.5264 16.7936 16.7936v50.3296c0 9.2672-7.5264 16.7936-16.7936 16.7936zM300.6464 249.8048c-18.5344 0-33.536-15.0016-33.536-33.536V59.136C267.1104 40.6016 282.112 25.6 300.6464 25.6c18.5344 0 33.536 15.0016 33.536 33.536v157.1328c0 18.5344-15.0016 33.536-33.536 33.536zM722.2784 249.8048c-18.5344 0-33.536-15.0016-33.536-33.536V59.136c0-18.5344 15.0016-33.536 33.536-33.536 18.5344 0 33.536 15.0016 33.536 33.536v157.1328c0 18.5344-15.0016 33.536-33.536 33.536z" /></svg>