<?xml version="1.0" standalone="no"?><!DOCTYPE svg PUBLIC "-//W3C//DTD SVG 1.1//EN" "http://www.w3.org/Graphics/SVG/1.1/DTD/svg11.dtd"><svg class="icon" width="200px" height="200.00px" viewBox="0 0 1024 1024" version="1.1" xmlns="http://www.w3.org/2000/svg"><path d="M131.584 386.3552c0-103.1168 36.1984-191.0272 108.0832-264.8064C311.552 47.7696 398.848 11.1104 501.1456 11.1104c102.2464 0 189.6448 36.608 262.4512 110.4384 72.9088 73.7792 109.056 161.7408 109.056 264.8064 0 14.1824-0.4608 28.8256-1.9456 43.008-2.4064 2.4576-1.8944 7.3216-1.8944 9.7792l-5.7856 35.1744c-2.4064 0-1.8944 3.3792-1.8944 5.8368-3.84 13.2096-7.7312 24.9344-11.5712 35.1744v1.9456l-1.9456 1.9456a361.0112 361.0112 0 0 1-15.4112 37.12c0 1.4336-0.4608 1.9456-1.8944 1.9456-6.2976 13.1584-13.5168 25.3952-21.248 37.12a537.9584 537.9584 0 0 1-25.088 35.1232l-0.9728 1.024-0.9728 0.9728c-8.3968 9.728-17.408 18.8416-27.0336 27.392-9.6256 8.4992-0.9728 0.4608-2.8672 1.9456-4.8128 3.3792-5.3248 6.3488-10.6496 11.7248-2.4064 0-5.7344 1.4336-5.7344 3.9424l-18.3296 14.6432-3.8912 2.9184-2.8672 1.9456c-10.752 8.2432-19.3536 18.9952-25.088 31.232-5.2736 11.776-10.0864 20.0704-15.4112 25.3952-5.2736 5.376-14.9504 7.8336-28.928 7.8336H363.1104c-13.9264 0-23.6032-2.5088-28.928-7.8336-5.3248-5.376-10.5984-13.6704-16.384-25.3952a106.28096 106.28096 0 0 0-24.1152-31.232c-1.4848 0-2.4576-0.512-3.8912-1.9456l-2.8672-2.9184-18.3296-14.6432-5.7856-3.9424-7.7312-7.8336-5.7856-5.8368-27.0336-27.392-0.9728-0.9728-0.9728-1.024a454.93248 454.93248 0 0 1-46.2848-72.2944c-1.4336 0-1.9456-0.512-1.9456-1.9456a349.952 349.952 0 0 1-15.4112-37.12c-1.4336 0-1.8944-0.4608-1.8944-1.9456v-1.9456c-4.3008-11.5712-8.1408-23.296-11.5712-35.1744-3.4304-11.8784-0.512-0.9728-1.024-2.9184l-0.9728-2.9184c-2.6624-11.6224-4.5568-23.3472-5.7856-35.1744 0-2.4576-1.9456-7.3216-1.9456-9.7792-1.3312-14.2336-1.9968-28.5696-1.8944-42.9568z m218.0608 437.8112h308.7872c17.8688 0 30.8736 13.2096 30.8736 31.232 0 18.0736-13.0048 31.2832-30.8736 31.2832H349.6448c-17.8688 0-30.9248-13.2096-30.9248-31.2832 0.0512-18.0224 13.056-31.232 30.9248-31.232z m13.5168 125.1328h279.808l-113.92 58.5728a69.44768 69.44768 0 0 1-55.9104 0l-109.9776-58.5728z m171.776-750.5408c37.12 0 72.3456 15.1552 105.1648 45.9264 32.8192 30.7712 49.2544 68.864 49.2544 114.3296 0 15.616 13.0048 31.232 30.8736 31.232s30.8736-15.6672 30.8736-31.232c0-67.9424-21.7088-121.7024-65.6384-162.2528-43.8784-40.5504-94.0544-60.5696-150.528-60.5696-17.8688 0-30.8736 13.2096-30.8736 31.2832-0.0512 18.0736 13.0048 31.2832 30.8736 31.2832z m0 0" /></svg>