<?xml version="1.0" standalone="no"?><!DOCTYPE svg PUBLIC "-//W3C//DTD SVG 1.1//EN" "http://www.w3.org/Graphics/SVG/1.1/DTD/svg11.dtd"><svg class="icon" width="200px" height="200.00px" viewBox="0 0 1024 1024" version="1.1" xmlns="http://www.w3.org/2000/svg"><path d="M847.5 191.2H177c-61.6 0-111.7 50.1-111.7 111.7v447c0 61.6 50.1 111.7 111.7 111.7h670.5c61.6 0 111.7-50.1 111.7-111.7v-447c0-61.6-50.1-111.7-111.7-111.7z m0 55.9c5.5 0 10.4 1.6 15.4 3.1L532.3 577.3c-10.8 10.8-29.3 10.8-40.3 0.1L159.6 250.6c5.6-1.8 11.3-3.5 17.4-3.5h670.5z m55.9 502.8c0 30.8-25 55.9-55.9 55.9H177c-30.8 0-55.9-25-55.9-55.9v-447c0-3.5 1.3-6.5 2-9.8l329.7 324.1c16.4 16.1 37.8 24.2 59.3 24.2 21.6 0 43.1-8.2 59.4-24.4L901 291.1c0.8 3.9 2.3 7.7 2.3 11.8v447z" /></svg>
