<?xml version="1.0" standalone="no"?><!DOCTYPE svg PUBLIC "-//W3C//DTD SVG 1.1//EN" "http://www.w3.org/Graphics/SVG/1.1/DTD/svg11.dtd"><svg class="icon" width="200px" height="200.00px" viewBox="0 0 1024 1024" version="1.1" xmlns="http://www.w3.org/2000/svg"><path d="M907.0592 199.0144c0-43.8784-35.584-79.4112-79.4112-79.4112h-87.552v-47.5136c0-28.4672-23.0912-51.6096-51.6096-51.6096H336.8448c-25.4976 0-46.6432 18.4832-50.8416 42.8032l-0.768 0.6656v55.6544h-87.552c-43.8784 0-79.4112 35.5328-79.4112 79.4112v718.1824c0 43.8784 35.5328 79.4112 79.4112 79.4112h629.9648c43.8784 0 79.4112-35.5328 79.4112-79.4112 0-1.9456-0.1024-3.8912-0.256-5.8368l0.256-0.256V199.0144zM721.92 463.4624l-0.1024 0.1024c-1.28 1.6384-2.7136 3.072-4.352 4.352l-299.0592 299.3664-0.0512 0.0512a24.9856 24.9856 0 0 1-17.7152 7.3216c-13.8752 0-25.088-11.264-25.088-25.1392 0-2.3552 0.3584-4.5568 0.9216-6.7072l0.0512-0.1536c0.4096-1.4336 0.9216-2.7648 1.5872-4.096l64.6656-168.2432H325.3248c-13.8752 0-25.1392-11.264-25.1392-25.1392 0-5.7344 1.9456-11.3152 5.5808-15.7696l0.0512-0.0512c0.1536-0.2048 0.3584-0.4096 0.512-0.5632l253.0304-290.304a25.0368 25.0368 0 0 1 21.1968-11.6224c13.8752 0 25.1392 11.264 25.1392 25.1392 0 3.8912-0.9216 7.5776-2.5088 10.8544l-36.864 160.2048h135.7824c13.8752 0 25.1392 11.264 25.1392 25.1392-0.0512 5.7344-2.048 11.008-5.3248 15.2576z m0 0" /></svg>