<?xml version="1.0" standalone="no"?><!DOCTYPE svg PUBLIC "-//W3C//DTD SVG 1.1//EN" "http://www.w3.org/Graphics/SVG/1.1/DTD/svg11.dtd"><svg class="icon" width="200px" height="200.00px" viewBox="0 0 1024 1024" version="1.1" xmlns="http://www.w3.org/2000/svg"><path d="M126.708216 824.926697v-221.052528H71.457687v221.052528c0 30.498695 10.787968 56.611628 32.363905 78.187565 21.575937 21.575937 47.638458 32.363905 78.137154 32.363905h221.052528V880.177226H181.958746c-14.66962 0.151233-28.784719-5.797273-38.917344-16.434007-10.535913-10.132624-16.484419-24.197312-16.333186-38.816522zM71.457687 161.769113v221.052528h55.250529V161.769113c-0.151233-14.66962 5.797273-28.784719 16.434008-38.917343a53.133264 53.133264 0 0 1 38.816522-16.282775h221.052528V51.268055H181.958746c-30.498695 0-56.561217 10.787968-78.137154 32.363905a106.301817 106.301817 0 0 0-32.363905 78.137153z m828.909172 663.157584c0.151233 14.66962-5.797273 28.784719-16.434008 38.917344a52.982031 52.982031 0 0 1-38.816522 16.333185h-221.052527v55.25053h221.052527c30.498695 0 56.611628-10.787968 78.187565-32.363905 21.575937-21.575937 32.363905-47.638458 32.363905-78.187565v-221.052528h-55.250529v221.102939zM845.116329 51.268055h-221.052527v55.250529h221.052527c14.66962-0.151233 28.784719 5.797273 38.917344 16.434008 10.586324 10.132624 16.484419 24.197312 16.333186 38.816521v221.052528H955.617388V161.769113c0-30.498695-10.787968-56.561217-32.363905-78.137153a106.49842 106.49842 0 0 0-78.137154-32.363905z m0 0M716.366465 758.585733H310.658199c-34.380348 0-62.408901-27.978142-62.408901-62.4089V290.468567c0-34.380348 27.978142-62.408901 62.408901-62.408901h405.708266c34.380348 0 62.408901 27.978142 62.408901 62.408901v405.708266c0 34.430759-27.978142 62.408901-62.408901 62.4089zM310.658199 267.48112c-12.703589 0-23.037858 10.334269-23.037857 23.037858v405.708266c0 12.703589 10.334269 23.037858 23.037857 23.037857h405.708266c12.703589 0 23.037858-10.334269 23.037857-23.037857V290.468567c0-12.703589-10.334269-23.037858-23.037857-23.037858H310.658199z" /></svg>