<?xml version="1.0" standalone="no"?><!DOCTYPE svg PUBLIC "-//W3C//DTD SVG 1.1//EN" "http://www.w3.org/Graphics/SVG/1.1/DTD/svg11.dtd"><svg class="icon" width="200px" height="200.00px" viewBox="0 0 1024 1024" version="1.1" xmlns="http://www.w3.org/2000/svg"><path d="M497.5616 125.184c9.728 0 19.5072 4.7616 25.1392 14.336l398.5408 673.4336c11.52 19.5072-2.5088 44.1344-25.1392 44.1344H99.072c-22.6304 0-36.7104-24.6272-25.1392-44.1344L472.4224 139.52c5.632-9.5232 15.4112-14.336 25.1392-14.336m0-57.7536c-31.0784 0-59.0336 15.9744-74.8544 42.7008L24.1664 783.5648a87.26016 87.26016 0 0 0-0.7168 87.3984c15.4624 27.0848 44.3904 43.8784 75.5712 43.8784h797.0304c31.1808 0 60.1088-16.8448 75.5712-43.8784a87.13728 87.13728 0 0 0-0.7168-87.3984L572.416 110.1312c-15.8208-26.7264-43.776-42.7008-74.8544-42.7008zM497.5616 637.8496c-16.0768 0-29.2352-13.1584-29.2352-29.2352V323.584c0-16.0768 13.1584-29.2352 29.2352-29.2352s29.2352 13.1584 29.2352 29.2352v285.0304c0 16.0768-13.1584 29.2352-29.2352 29.2352zM497.5616 740.1472m-51.1488 0a51.1488 51.1488 0 1 0 102.2976 0 51.1488 51.1488 0 1 0-102.2976 0Z" /></svg>