<svg t="1564399479008" class="icon" viewBox="0 0 1024 1024" version="1.1" xmlns="http://www.w3.org/2000/svg" p-id="7909" width="200" height="200"><path d="M580.883692 332.406154c-32.610462 0-58.919385-23.670154-58.919384-58.683077 0-34.973538 26.387692-58.604308 58.919384-58.604308 32.413538 0 58.958769 23.630769 58.95877 58.643693 0 34.973538-26.466462 58.604308-58.95877 58.604307m11.421539 367.970462c-38.675692 58.013538-77.902769 102.636308-144.147693 102.636307-45.134769-7.325538-63.645538-39.660308-53.838769-72.585846l85.070769-281.718154c2.048-6.892308-1.339077-14.217846-7.68-16.462769-6.222769-2.205538-18.589538 5.986462-29.262769 17.565539L391.089231 511.645538c-1.378462-10.318769-0.078769-27.569231-0.078769-34.461538 38.596923-58.013538 102.045538-103.778462 145.132307-103.778462 40.881231 4.174769 60.179692 36.942769 53.090462 72.861539l-85.700923 283.096615a13.390769 13.390769 0 0 0 8.11323 14.966154c6.222769 2.166154 19.574154-5.907692 30.208-17.644308l51.475693-61.833846c1.260308 10.318769-1.024 28.475077-1.024 35.446154M512 0C229.218462 0 0 229.297231 0 512s229.218462 512 512 512 512-229.376 512-512c0-282.702769-229.218462-512-512-512" p-id="7910"></path></svg>