<?xml version="1.0" encoding="utf-8"?>
<!-- Generator: Adobe Illustrator 24.0.0, SVG Export Plug-In . SVG Version: 6.00 Build 0)  -->
<svg version="1.1" xmlns="http://www.w3.org/2000/svg" xmlns:xlink="http://www.w3.org/1999/xlink" x="0px" y="0px"
	 viewBox="0 0 100 100" style="enable-background:new 0 0 100 100;" xml:space="preserve">
<style type="text/css">
	.st0{fill:#65F5B7;}
	.st1{fill:none;stroke:#070504;stroke-width:6;stroke-miterlimit:10;}
	.st2{fill:none;stroke:#000100;stroke-width:6;stroke-linecap:round;stroke-miterlimit:10;}
	.st3{fill:#000100;}
	.st4{fill:#070504;}
	.st5{fill:none;stroke:#070504;stroke-width:5;stroke-linecap:round;stroke-miterlimit:10;}
	.st6{fill:none;stroke:#070504;stroke-width:6;stroke-linecap:round;stroke-miterlimit:10;}
	.st7{fill:#F56C6C;}
	.st8{fill:none;stroke:#000000;stroke-width:6;stroke-miterlimit:10;}
	.st9{fill:none;stroke:#000000;stroke-width:6;stroke-linecap:round;stroke-miterlimit:10;}
	.st10{fill:url(#SVGID_1_);}
	.st11{fill:none;stroke:#1C4EEB;stroke-width:6;stroke-miterlimit:10;}
	.st12{fill:none;stroke:#1F50E9;stroke-width:6;stroke-miterlimit:10;}
	.st13{fill:url(#SVGID_2_);}
	.st14{fill:url(#SVGID_3_);}
	.st15{fill:url(#SVGID_4_);}
	.st16{fill:#1F50E9;stroke:#FFFFFF;stroke-width:4;stroke-miterlimit:10;}
	.st17{fill:#1F50E9;}
	.st18{fill:#1C4EEB;}
	.st19{fill:url(#SVGID_5_);}
	.st20{fill:url(#SVGID_6_);}
	.st21{fill:none;stroke:#2D4CE8;stroke-width:6;stroke-miterlimit:10;}
	.st22{fill:#A6B7FF;}
	.st23{fill:none;stroke:#2D4CE8;stroke-width:6;stroke-linecap:round;stroke-miterlimit:10;}
	.st24{fill:#2D4DE8;}
	.st25{fill:none;stroke:#A6B7FF;stroke-width:5;stroke-miterlimit:10;}
	.st26{fill:#2D4CE8;}
	.st27{fill:none;stroke:#A6B7FF;stroke-width:6;stroke-linecap:round;stroke-miterlimit:10;}
	.st28{fill:#A6B5FB;}
	.st29{fill:none;stroke:#333333;stroke-width:4;stroke-miterlimit:10;}
	.st30{fill:#333333;}
	.st31{fill:#FFD01E;}
	.st32{fill:url(#SVGID_7_);}
	.st33{fill:#FF721C;}
	.st34{fill:none;stroke:#FFFFFF;stroke-width:4;stroke-miterlimit:10;}
	.st35{fill:#FFFFFF;}
	.st36{fill:none;stroke:#12ACEF;stroke-width:8;stroke-linecap:round;stroke-miterlimit:10;}
	.st37{fill:#12ACEF;}
	.st38{fill:#4BB897;}
	.st39{fill:none;stroke:#000000;stroke-width:4;stroke-miterlimit:10;}
	.st40{fill:url(#SVGID_8_);}
	.st41{fill:#FF6F1D;}
	.st42{fill:url(#SVGID_9_);}
	.st43{fill:none;stroke:#000000;stroke-width:4;stroke-linecap:round;stroke-miterlimit:10;}
	.st44{fill:url(#SVGID_10_);}
	.st45{filter:url(#Adobe_OpacityMaskFilter);}
	.st46{mask:url(#SVGID_11_);}
	.st47{fill:url(#SVGID_12_);}
	.st48{opacity:0.84;fill:url(#SVGID_13_);}
	.st49{fill:#006CEE;}
	.st50{fill:#00CFFF;}
	.st51{fill:#0145F3;}
	.st52{filter:url(#Adobe_OpacityMaskFilter_1_);}
	.st53{mask:url(#SVGID_14_);}
	.st54{fill:url(#SVGID_15_);}
	.st55{opacity:0.84;fill:url(#SVGID_16_);}
	.st56{fill:#FF9F00;}
	.st57{fill:#FFC501;}
	.st58{fill:#FFEF02;}
	.st59{fill:#FF9700;}
	.st60{filter:url(#Adobe_OpacityMaskFilter_2_);}
	.st61{mask:url(#SVGID_17_);}
	.st62{fill:url(#SVGID_18_);}
	.st63{opacity:0.84;fill:url(#SVGID_19_);}
	.st64{fill:#FF396C;}
	.st65{fill:#C1144D;}
	.st66{fill:#FAD126;}
	.st67{fill:#FADE28;}
	.st68{fill:#FFC600;}
	.st69{filter:url(#Adobe_OpacityMaskFilter_3_);}
	.st70{mask:url(#SVGID_20_);}
	.st71{fill:url(#SVGID_21_);}
	.st72{opacity:0.84;fill:url(#SVGID_22_);}
	.st73{fill:#4AED4A;}
	.st74{fill:#DFFB07;}
	.st75{fill:#2CDD2C;}
	.st76{filter:url(#Adobe_OpacityMaskFilter_4_);}
	.st77{mask:url(#SVGID_23_);}
	.st78{fill:url(#SVGID_24_);}
	.st79{fill:none;stroke:url(#SVGID_25_);stroke-miterlimit:10;}
	.st80{fill:url(#SVGID_26_);}
	.st81{fill:#8F84FF;}
	.st82{fill:none;stroke:#504CE0;stroke-width:3;stroke-linecap:round;stroke-miterlimit:10;}
	.st83{opacity:0.84;}
	.st84{filter:url(#Adobe_OpacityMaskFilter_5_);}
	.st85{mask:url(#SVGID_27_);}
	.st86{fill:url(#SVGID_28_);}
	.st87{opacity:0.84;fill:url(#SVGID_29_);}
	.st88{fill:#07FCFF;}
	.st89{fill:#006EF2;}
</style>
<g id="图层_1">
</g>
<g id="图层_2">
	<g>
		<g>
			<path class="st35" d="M87.75,93.75h-75c-3.3,0-6-2.66-6-5.92V46.43c0-3.25,2-3.94,6-5.92l37.5-16.76c0,0,37.24,16.62,37.5,16.76
				c3.55,1.96,6,2.81,6,5.92v41.41C93.75,91.09,91.05,93.75,87.75,93.75z"/>
			<path class="st38" d="M87.75,97.75h-75c-5.51,0-10-4.45-10-9.92V46.43c0-5.49,3.72-7.31,7.33-9.06l1.04-0.51l39.13-17.49
				l1.63,0.73c37.4,16.69,37.6,16.8,37.8,16.91c0.43,0.24,0.84,0.46,1.24,0.67c3.04,1.62,6.83,3.64,6.83,8.75v41.41
				C97.75,93.3,93.26,97.75,87.75,97.75z M10.77,46.09c-0.01,0.06-0.02,0.17-0.02,0.33v41.41c0,1.04,0.92,1.92,2,1.92h75
				c1.08,0,2-0.88,2-1.92V46.43c0-0.06,0-0.1,0-0.12c-0.34-0.37-1.63-1.06-2.58-1.56c-0.39-0.21-0.8-0.43-1.22-0.66
				c-1.81-0.83-24.9-11.13-35.69-15.95l-35.81,16l-0.87,0.42C12.49,45.09,11.16,45.74,10.77,46.09z"/>
		</g>
		<g>
			<path class="st35" d="M22.75,49.75v-37c0-3.3,2.7-6,6-6h45c3.3,0,6,2.7,6,6v37"/>
			<path class="st38" d="M79.75,53.75c-2.21,0-4-1.79-4-4v-37c0-1.08-0.92-2-2-2h-45c-1.08,0-2,0.92-2,2v37c0,2.21-1.79,4-4,4
				s-4-1.79-4-4v-37c0-5.51,4.49-10,10-10h45c5.51,0,10,4.49,10,10v37C83.75,51.96,81.96,53.75,79.75,53.75z"/>
		</g>
		<path class="st38" d="M50.73,68.15L6.06,47.38c-2-0.93-2.87-3.31-1.94-5.31c0.93-2,3.31-2.87,5.31-1.94l41.34,19.23L91.1,41.1
			c2.01-0.91,4.38-0.02,5.29,2c0.91,2.01,0.02,4.38-2,5.29L50.73,68.15z"/>
		<path class="st38" d="M50.75,27.75h-15c-2.2,0-4-1.8-4-4v0c0-2.2,1.8-4,4-4h15c2.2,0,4,1.8,4,4v0
			C54.75,25.95,52.95,27.75,50.75,27.75z"/>
		<path class="st38" d="M57.75,40.75h-22c-2.2,0-4-1.8-4-4v0c0-2.2,1.8-4,4-4h22c2.2,0,4,1.8,4,4v0
			C61.75,38.95,59.95,40.75,57.75,40.75z"/>
	</g>
</g>
</svg>
