<?xml version="1.0" standalone="no"?><!DOCTYPE svg PUBLIC "-//W3C//DTD SVG 1.1//EN" "http://www.w3.org/Graphics/SVG/1.1/DTD/svg11.dtd"><svg class="icon" width="200px" height="200.00px" viewBox="0 0 1024 1024" version="1.1" xmlns="http://www.w3.org/2000/svg"><path d="M732.2624 971.3152c-22.4768 22.4768-59.1872 22.4768-81.664 0l-413.3888-413.3888c-22.4768-22.4768-22.4768-59.1872 0-81.664 22.4768-22.4768 59.1872-22.4768 81.664 0l413.3888 413.3888c22.4768 22.4768 22.4768 59.2384 0 81.664zM237.2608 557.9264c-22.4768-22.4768-22.4768-59.1872 0-81.664l413.3888-413.3888c22.4768-22.4768 59.1872-22.4768 81.664 0 22.4768 22.4768 22.4768 59.1872 0 81.664l-413.3888 413.3888c-22.4768 22.4768-59.2384 22.4768-81.664 0z" /></svg>