<?xml version="1.0" standalone="no"?><!DOCTYPE svg PUBLIC "-//W3C//DTD SVG 1.1//EN" "http://www.w3.org/Graphics/SVG/1.1/DTD/svg11.dtd"><svg t="1535425404060" class="icon" style="" viewBox="0 0 1600 1024" version="1.1" xmlns="http://www.w3.org/2000/svg" p-id="11982" xmlns:xlink="http://www.w3.org/1999/xlink" width="312.5" height="200"><defs><style type="text/css"></style></defs><path d="M349.6 839.733333v-656c0-49.333333 40-89.333333 89.333333-89.333333H826.666667V34.666667H409.066667c-65.866667 0-119.2 53.333333-119.2 119.2V869.333333c0 65.866667 53.333333 119.2 119.2 119.2H826.666667v-59.733333H438.933333c-49.333333 0.266667-89.333333-39.733333-89.333333-89.066667zM1297.066667 490.666667l-210.933334-210.933334c-11.733333-11.733333-30.666667-11.733333-42.133333 0-11.733333 11.733333-11.733333 30.4 0 42.133334l160 160H617.866667c-16.533333 0-29.866667 13.333333-29.866667 29.866666 0 16.533333 13.333333 29.866667 29.866667 29.866667h586.133333l-160 160c-11.733333 11.733333-11.733333 30.4 0 42.133333s30.4 11.733333 42.133333 0l210.933334-210.933333c11.466667-11.733333 11.466667-30.4 0-42.133333z m0 0" fill="" p-id="11983"></path></svg>