<?xml version="1.0" standalone="no"?><!DOCTYPE svg PUBLIC "-//W3C//DTD SVG 1.1//EN" "http://www.w3.org/Graphics/SVG/1.1/DTD/svg11.dtd"><svg class="icon" width="200px" height="200.00px" viewBox="0 0 1024 1024" version="1.1" xmlns="http://www.w3.org/2000/svg"><path d="M593.92 639.8464h-0.8704c-7.0656-0.3584-13.312-4.8128-15.872-11.4176l-78.6944-203.776-74.4448 140.1344c-2.6624 5.0176-7.5776 8.4992-13.1584 9.3184-5.5808 0.8192-11.3152-1.024-15.3088-5.0688L334.592 508.0576l-58.9312 36.2496c-8.3968 5.1712-19.456 2.56-24.6272-5.888-5.1712-8.448-2.56-19.456 5.888-24.6272l71.0144-43.6736c7.0656-4.352 16.1792-3.2768 22.0672 2.6112l53.8624 53.8624 81.4592-153.3952a17.86368 17.86368 0 0 1 16.896-9.472c7.0144 0.4096 13.1072 4.864 15.6672 11.4176l78.2336 202.496 69.2224-138.496a17.86368 17.86368 0 0 1 15.6672-9.8816c6.6048-0.1024 12.8512 3.4304 16.0256 9.2672l60.0576 109.2096a17.91488 17.91488 0 0 1-31.3856 17.2544l-43.6224-79.3088-72.0896 144.2304a18.05312 18.05312 0 0 1-16.0768 9.9328zM887.4496 758.4256V276.8384c0-22.784-18.5344-41.3184-41.3184-41.3184H172.3904c-22.784 0-41.3184 18.5344-41.3184 41.3184v481.5872H20.48v51.8656c0 12.0832 9.7792 21.8624 21.8624 21.8624h939.3664c12.0832 0 21.8624-9.7792 21.8624-21.8624v-51.8656h-116.1216zM593.92 803.84H430.08v-46.08h163.84v46.08z m252.5696-71.3216H172.032L172.3904 276.48l674.0992 0.3584v455.68z" /></svg>