<?xml version="1.0" standalone="no"?><!DOCTYPE svg PUBLIC "-//W3C//DTD SVG 1.1//EN" "http://www.w3.org/Graphics/SVG/1.1/DTD/svg11.dtd"><svg t="1541418559218" class="icon" style="" viewBox="0 0 1024 1024" version="1.1" xmlns="http://www.w3.org/2000/svg" p-id="2841" xmlns:xlink="http://www.w3.org/1999/xlink" width="200" height="200"><defs><style type="text/css"></style></defs><path d="M515.413 223.573c-307.2 0-493.226 314.027-493.226 314.027s215.04 303.787 493.226 303.787S1008.64 537.6 1008.64 537.6 822.613 223.573 515.413 223.573z m317.44 428.374C730.453 738.987 621.227 791.893 512 791.893s-218.453-51.2-320.853-139.946c-35.84-32.427-69.974-64.854-98.987-98.987-6.827-6.827-10.24-11.947-15.36-18.773 3.413-6.827 10.24-11.947 13.653-18.774 25.6-35.84 58.027-69.973 92.16-102.4C281.6 324.267 390.827 269.653 512 269.653s230.4 54.614 329.387 143.36c35.84 32.427 64.853 66.56 92.16 102.4 3.413 6.827 10.24 13.654 13.653 18.774-3.413 6.826-10.24 13.653-15.36 18.773-29.013 32.427-61.44 68.267-98.987 98.987z" p-id="2842"></path><path d="M512 344.747c-95.573 0-168.96 76.8-168.96 168.96 0 95.573 76.8 168.96 168.96 168.96 95.573 0 168.96-76.8 168.96-168.96s-76.8-168.96-168.96-168.96z" p-id="2843"></path></svg>