<?xml version="1.0" standalone="no"?><!DOCTYPE svg PUBLIC "-//W3C//DTD SVG 1.1//EN" "http://www.w3.org/Graphics/SVG/1.1/DTD/svg11.dtd"><svg class="icon" width="200px" height="200.00px" viewBox="0 0 1024 1024" version="1.1" xmlns="http://www.w3.org/2000/svg"><path d="M504.6784 578.4576c-7.6288 0-15.2064-1.7408-22.1184-5.2224L69.9904 365.4144a48.7936 48.7936 0 0 1-26.8288-42.0864 49.73568 49.73568 0 0 1 24.5248-44.4928L485.0176 32.512c15.4624-9.1136 34.6112-9.216 50.0224-0.2048l422.2464 247.0912a48.77824 48.77824 0 0 1 24.1152 44.1856 49.7152 49.7152 0 0 1-28.0576 42.8544l-427.008 207.104c-6.8096 3.2768-14.2848 4.9152-21.6576 4.9152zM121.7536 320.512l383.0784 192.9728 397.568-192.768-392.1408-229.4784L121.7536 320.512zM506.88 777.3184c-7.68 0-15.3088-1.7408-22.272-5.1712L42.8544 553.7792a31.72864 31.72864 0 0 1-14.3872-42.4448c7.7824-15.6672 26.7776-22.1184 42.4448-14.3872l436.0192 215.552 457.5232-226.2528c15.7184-7.7312 34.7136-1.3312 42.4448 14.3872 7.7312 15.6672 1.3312 34.7136-14.3872 42.4448l-462.9504 228.9152a50.8928 50.8928 0 0 1-22.6816 5.3248zM498.9952 975.4624c-7.8336 0-15.616-1.792-22.6816-5.3248L31.9488 746.5984a31.744 31.744 0 0 1-14.08-42.5472 31.744 31.744 0 0 1 42.5472-14.08l438.7328 220.672 454.8096-220.8768c15.7184-7.68 34.7136-1.0752 42.3424 14.6432 7.6288 15.7184 1.0752 34.7136-14.6432 42.3424l-460.3904 223.5904c-6.9632 3.4304-14.6432 5.12-22.272 5.12z" /></svg>