<?xml version="1.0" standalone="no"?><!DOCTYPE svg PUBLIC "-//W3C//DTD SVG 1.1//EN" "http://www.w3.org/Graphics/SVG/1.1/DTD/svg11.dtd"><svg t="1535510090722" class="icon" style="" viewBox="0 0 1024 1024" version="1.1" xmlns="http://www.w3.org/2000/svg" p-id="10923" xmlns:xlink="http://www.w3.org/1999/xlink" width="200" height="200"><defs><style type="text/css"></style></defs><path d="M828.932 661.298c-26.422-18.563-54.095-35.731-77.913-48.35-38.562-20.421-55.099-22.781-64.184-22.781-18.342 0-34.234 9.605-47.266 28.552-8.578 12.476-15.039 27.455-21.282 41.947-4.206 9.758-10.935 25.358-15.651 31.305-8.774-2.079-29.933-11.156-65.79-35.665-33.435-22.844-69.653-52.396-96.966-79.081-26.602-27.409-56.041-63.753-78.813-97.3-24.43-35.992-33.47-57.229-35.541-66.017 5.93-4.741 21.471-11.482 31.213-15.717 14.428-6.265 29.355-12.743 41.787-21.341 18.881-13.073 28.46-29.034 28.46-47.429 0-9.109-2.352-25.71-22.709-64.409-12.571-23.898-29.679-51.663-48.182-78.177-13.771-19.752-34.792-48.078-56.702-70.866C274.629 90.191 255.781 78.7 238.289 78.7c-42.611 0-92.768 62.668-107.121 81.88-18.396 24.61-61.188 88.337-61.188 148.383 0 56.116 37.251 128.551 68.51 179.437 41.854 68.154 99.749 141.573 163.024 206.74l20.618 20.692 0.235 0.239c64.949 63.484 138.112 121.588 206.024 163.585 50.714 31.367 122.91 68.74 178.821 68.74 59.836 0 123.35-42.935 147.889-61.396 19.14-14.4 81.591-64.733 81.591-107.487 0-17.563-11.457-36.469-37.134-61.324-22.708-21.975-50.942-43.069-70.626-56.891z m39.966 143.963c-11.955 13.839-28.618 28.92-46.926 42.462-41.775 30.887-84.663 49.324-114.755 49.324-33.782 0-89.17-22.274-151.968-61.113-64.778-40.051-134.745-95.635-197.045-156.528l-20.162-20.224c-60.685-62.52-116.072-132.725-155.994-197.729-38.703-63.021-60.89-118.601-60.89-152.495 0-30.197 18.363-73.239 49.148-115.145 13.492-18.37 28.515-35.1 42.311-47.081 12.943-11.248 21.392-15.365 24.803-16.416 9.302 4.353 38.411 30.175 79.859 90.458 16.249 23.644 31.192 48.094 42.059 68.833 13.643 26.054 16.002 36.905 16.392 39.386-0.657 0.975-3.029 3.809-10.228 8.118-8.072 4.825-18.755 9.466-29.091 13.952-12.838 5.574-26.104 11.328-36.774 18.417-17.446 11.603-26.12 25.831-25.773 42.319 0.164 7.892 0.678 31.886 44.901 97.041 24.422 35.962 56.074 75.013 84.693 104.473l0.456 0.452c29.338 28.72 68.276 60.488 104.109 84.993 64.933 44.365 88.848 44.877 96.703 45.048 0.313 0.009 0.619 0.009 0.908 0.009 16.144-0.004 30.087-8.8 41.444-26.125 6.979-10.667 12.675-23.868 18.182-36.636 4.47-10.379 9.089-21.107 13.901-29.201 4.306-7.23 7.126-9.6 8.093-10.269 2.47 0.394 13.291 2.758 39.248 16.454 20.672 10.909 45.039 25.894 68.603 42.211 60.07 41.581 85.806 70.787 90.148 80.13-1.047 3.415-5.148 11.892-16.355 24.882z m0 0" p-id="10924"></path><path d="M500.641 384.423c1.795 10.236 11.519 17.078 21.717 15.27 28.18-4.988 56.421 0.695 79.517 15.998 22.785 15.082 37.85 37.778 42.439 63.886 1.607 9.144 9.521 15.563 18.45 15.563 1.08 0 2.181-0.096 3.281-0.293 10.202-1.803 17.01-11.562 15.211-21.801-6.398-36.407-27.25-67.933-58.719-88.765-31.134-20.634-69.025-28.326-106.687-21.654-10.2 1.802-17.009 11.56-15.209 21.796z m21.717-108.102c54.049-9.57 108.272 1.364 152.688 30.782 44.085 29.2 73.269 73.193 82.178 123.885 1.598 9.131 9.516 15.546 18.445 15.546 1.084 0 2.18-0.092 3.28-0.281 10.198-1.799 17.015-11.566 15.212-21.802-10.709-60.97-45.676-113.809-98.46-148.754-52.446-34.753-116.324-47.688-179.851-36.452-10.202 1.803-17.006 11.574-15.207 21.806 1.796 10.233 11.517 17.074 21.715 15.27z m0 0" p-id="10925"></path><path d="M944.899 410.418c-17.006-96.782-72.544-180.667-156.396-236.209-83.524-55.312-185.27-75.909-286.495-57.999-10.206 1.808-17.01 11.566-15.211 21.798 1.795 10.235 11.52 17.073 21.714 15.27 91.748-16.237 183.847 2.36 259.324 52.349 75.169 49.776 124.924 124.831 140.122 211.323 1.603 9.131 9.524 15.554 18.454 15.554 1.084 0 2.176-0.092 3.276-0.292 10.208-1.8 17.016-11.559 15.212-21.794z m0 0" p-id="10926"></path></svg>
