<?xml version="1.0" standalone="no"?><!DOCTYPE svg PUBLIC "-//W3C//DTD SVG 1.1//EN" "http://www.w3.org/Graphics/SVG/1.1/DTD/svg11.dtd"><svg class="icon" width="200px" height="200.00px" viewBox="0 0 1024 1024" version="1.1" xmlns="http://www.w3.org/2000/svg"><path d="M558.08 747.52H321.536c-12.288 0-21.504-9.216-21.504-21.504V314.368c0-20.48 16.384-36.864 37.888-36.864h204.8c20.48 0 37.888 16.384 37.888 36.864v411.648c-1.024 12.288-11.264 21.504-22.528 21.504z m-234.496-23.552h231.424v-409.6c0-7.168-6.144-13.312-13.312-13.312h-204.8c-7.168 0-13.312 6.144-13.312 13.312v409.6zM747.52 747.52H276.48c-6.144 0-10.24-4.096-10.24-10.24s4.096-10.24 10.24-10.24h471.04c6.144 0 10.24 4.096 10.24 10.24-1.024 5.12-5.12 10.24-10.24 10.24zM722.944 747.52H555.008V372.736h140.288c15.36 0 27.648 12.288 27.648 27.648V747.52z m-143.36-23.552h119.808V401.408c0-2.048-2.048-4.096-4.096-4.096H579.584v326.656zM411.648 395.264h-40.96c-6.144 0-10.24-4.096-10.24-10.24s4.096-10.24 10.24-10.24h40.96c6.144 0 10.24 4.096 10.24 10.24s-4.096 10.24-10.24 10.24zM627.712 501.76v-40.96c0-6.144 4.096-10.24 10.24-10.24s10.24 4.096 10.24 10.24v40.96c0 6.144-4.096 10.24-10.24 10.24s-10.24-5.12-10.24-10.24zM627.712 629.76v-40.96c0-6.144 4.096-10.24 10.24-10.24s10.24 4.096 10.24 10.24v40.96c0 6.144-4.096 10.24-10.24 10.24s-10.24-5.12-10.24-10.24zM411.648 506.88h-40.96c-6.144 0-10.24-4.096-10.24-10.24s4.096-10.24 10.24-10.24h40.96c6.144 0 10.24 4.096 10.24 10.24s-4.096 10.24-10.24 10.24zM411.648 619.52h-40.96c-6.144 0-10.24-4.096-10.24-10.24s4.096-10.24 10.24-10.24h40.96c6.144 0 10.24 4.096 10.24 10.24 0 5.12-4.096 10.24-10.24 10.24zM514.048 395.264h-40.96c-6.144 0-10.24-4.096-10.24-10.24s4.096-10.24 10.24-10.24h40.96c6.144 0 10.24 4.096 10.24 10.24s-4.096 10.24-10.24 10.24zM514.048 506.88h-40.96c-6.144 0-10.24-4.096-10.24-10.24s4.096-10.24 10.24-10.24h40.96c6.144 0 10.24 4.096 10.24 10.24s-4.096 10.24-10.24 10.24zM518.144 620.544h-48.128c-6.144 0-12.288-5.12-12.288-12.288 0-6.144 5.12-12.288 12.288-12.288h48.128c6.144 0 12.288 5.12 12.288 12.288-1.024 7.168-6.144 12.288-12.288 12.288z" /></svg>