<?xml version="1.0" standalone="no"?><!DOCTYPE svg PUBLIC "-//W3C//DTD SVG 1.1//EN" "http://www.w3.org/Graphics/SVG/1.1/DTD/svg11.dtd"><svg class="icon" width="200px" height="200.00px" viewBox="0 0 1024 1024" version="1.1" xmlns="http://www.w3.org/2000/svg"><path d="M522.24 593.2032c-151.3472 0-274.4832-123.8528-274.4832-276.1216S370.8928 40.96 522.24 40.96s274.4832 123.8528 274.4832 276.1216-123.136 276.1216-274.4832 276.1216z m0-486.7584c-115.2512 0-208.9984 94.5152-208.9984 210.6368 0 116.1728 93.7472 210.6368 208.9984 210.6368s208.9984-94.5152 208.9984-210.6368c0-116.1728-93.7472-210.6368-208.9984-210.6368zM909.0048 986.4704a32.256 32.256 0 0 1-32.256-32.256c0-196.9664-159.0272-357.1712-354.56-357.1712s-354.56 160.256-354.56 357.1712c0 17.8176-14.4384 32.256-32.256 32.256s-32.256-14.4384-32.256-32.256c0-232.4992 187.9552-421.632 419.0208-421.632s419.0208 189.1328 419.0208 421.632c0.1024 17.8176-14.336 32.256-32.1536 32.256z" /></svg>