<?xml version="1.0" standalone="no"?><!DOCTYPE svg PUBLIC "-//W3C//DTD SVG 1.1//EN" "http://www.w3.org/Graphics/SVG/1.1/DTD/svg11.dtd"><svg class="icon" width="200px" height="200.00px" viewBox="0 0 1024 1024" version="1.1" xmlns="http://www.w3.org/2000/svg"><path d="M444.4672 189.3888c37.7344 0 74.5472 7.168 109.312 21.2992 35.9936 14.592 68.3008 36.0448 96 63.8464a289.62304 289.62304 0 0 1 84.7872 192.6144c3.1744 72.2944-20.4288 142.592-66.4576 197.9904l-17.4592 21.0944-21.0944 17.4592a287.05792 287.05792 0 0 1-87.9616 50.0224 290.75968 290.75968 0 0 1-97.3312 16.7424c-37.7344 0-74.5472-7.168-109.312-21.2992-35.9936-14.592-68.3008-36.0448-96-63.744-27.8016-27.8016-49.2544-60.0576-63.8464-96a289.04448 289.04448 0 0 1-21.2992-109.312c0-37.7344 7.168-74.5472 21.2992-109.312 14.592-35.9936 36.0448-68.3008 63.8464-96 27.8016-27.6992 60.0576-49.2544 96-63.8464 34.9696-14.3872 71.7824-21.5552 109.5168-21.5552m0-66.9184c-91.4432 0-182.9376 34.8672-252.7232 104.6528-139.6224 139.6224-139.6224 365.8752 0 505.4976 69.7856 69.7344 161.28 104.6528 252.7232 104.6528 81.0496 0 161.9968-27.3408 227.9936-82.176l0.4608 0.4608 186.368 186.368a33.36192 33.36192 0 0 0 23.7056 9.7792c8.5504 0 17.2032-3.2768 23.7056-9.7792 13.0048-13.0048 13.0048-34.304 0-47.3088l-186.5728-186.368-0.4608-0.4608c116.5824-140.3392 109.1072-349.0304-22.4768-480.6656-69.7856-69.7856-161.28-104.6528-252.7232-104.6528z m0 0" /></svg>