<?xml version="1.0" standalone="no"?><!DOCTYPE svg PUBLIC "-//W3C//DTD SVG 1.1//EN" "http://www.w3.org/Graphics/SVG/1.1/DTD/svg11.dtd"><svg class="icon" width="200px" height="200.00px" viewBox="0 0 1024 1024" version="1.1" xmlns="http://www.w3.org/2000/svg"><path d="M515.0208 537.0368a34.59584 34.59584 0 0 1-35.2256-33.792V100.5568c0-18.7392 15.7696-33.9968 35.2256-33.9968 19.5072 0 35.328 15.3088 35.328 33.9968v402.4832c-0.1536 9.1648-3.9936 17.92-10.5984 24.2688a34.82624 34.82624 0 0 1-24.6784 9.6768h-0.0512zM504.4224 1008.64a458.04544 458.04544 0 0 1-318.5664-127.2832 433.39264 433.39264 0 0 1-96.5632-138.1376 421.2736 421.2736 0 0 1 16.2304-370.8416 444.7744 444.7744 0 0 1 137.0624-151.552 36.0448 36.0448 0 0 1 49.2032 7.8848 33.09568 33.09568 0 0 1 6.0416 25.3952 32.8704 32.8704 0 0 1-14.2848 21.8624 376.34048 376.34048 0 0 0-115.6608 128 350.73536 350.73536 0 0 0-43.52 169.9328c0 97.9968 39.5776 190.0544 111.4112 259.328a384.82944 384.82944 0 0 0 268.7488 107.4176 384.8192 384.8192 0 0 0 268.7488-107.3152 357.8624 357.8624 0 0 0 111.3088-259.3792 350.3616 350.3616 0 0 0-43.4176-169.9328 375.47008 375.47008 0 0 0-115.8144-127.8976 33.15712 33.15712 0 0 1-14.1824-21.504c-1.6384-8.8064 0.3584-17.8688 5.5296-25.1392l0.5632-0.7168c11.6224-15.36 33.28-18.8416 49.152-7.8848a443.94496 443.94496 0 0 1 137.0112 151.5008 420.60288 420.60288 0 0 1 16.2304 370.8416 432.2304 432.2304 0 0 1-96.5632 138.1888 450.31424 450.31424 0 0 1-143.2064 93.1328A463.09888 463.09888 0 0 1 504.4224 1008.64z m0 0" /></svg>