<?xml version="1.0" standalone="no"?><!DOCTYPE svg PUBLIC "-//W3C//DTD SVG 1.1//EN" "http://www.w3.org/Graphics/SVG/1.1/DTD/svg11.dtd"><svg class="icon" width="200px" height="200.00px" viewBox="0 0 1024 1024" version="1.1" xmlns="http://www.w3.org/2000/svg"><path d="M894.3 953.4c-3.5-96.7-43.2-187.7-111.8-256.2-38-38-82.3-67-131.6-86.2 24.4-13.3 46.7-30 66.6-49.9 54.9-54.9 85.2-127.9 85.2-205.6 0-77.7-30.2-150.7-85.2-205.6C662.6 95 589.6 64.7 511.9 64.7S361.2 95 306.3 149.9c-54.9 54.9-85.2 127.9-85.2 205.6s30.2 150.7 85.2 205.6c19.9 19.9 42.2 36.6 66.6 49.9-49.3 19.2-93.5 48.1-131.6 86.2-68.6 68.5-108.3 159.5-111.8 256.2l-0.2 5.1h59.9l0.2-4.7c3.4-80.8 36.9-156.9 94.2-214.3 55.9-55.9 130.1-89.3 208.8-93.9 6.6 0.4 13.1 0.7 19.5 0.7 6.3 0 12.9-0.2 19.5-0.7 78.7 4.7 152.8 38 208.8 93.9 57.3 57.3 90.8 133.4 94.2 214.3l0.2 4.7h59.9l-0.2-5.1zM742.7 355.5c0 119.3-93 220.3-211.8 230.1-6.3-0.3-12.7-0.5-19-0.5-6.3 0-12.7 0.2-19 0.5C374.1 575.8 281 474.8 281 355.5c0-127.3 103.6-230.8 230.8-230.8s230.9 103.5 230.9 230.8z"  /></svg>
