<?xml version="1.0" standalone="no"?><!DOCTYPE svg PUBLIC "-//W3C//DTD SVG 1.1//EN" "http://www.w3.org/Graphics/SVG/1.1/DTD/svg11.dtd"><svg class="icon" width="200px" height="200.00px" viewBox="0 0 1024 1024" version="1.1" xmlns="http://www.w3.org/2000/svg"><path d="M888.5248 631.808l-1.024-10.0352c0-1.4848-0.512-3.5328-1.024-6.5536-0.512-6.0416-1.4848-12.032-2.5088-17.5616-0.512-4.5056-1.4848-9.0624-2.5088-13.568l-1.4848-6.5536C857.344 471.6032 793.6 348.0064 689.6128 209.92c-75.3152-99.9424-146.176-172.288-149.6576-176.2816 0 0-3.9936-3.5328-8.0384-6.5536-11.5712-9.0624-27.648-8.5504-39.168 0-4.0448 3.0208-8.0384 6.5536-9.0624 8.0384C476.16 42.6496 408.3712 112.9472 335.0016 209.92c-103.9872 138.1376-168.2432 261.6832-190.3616 366.6432l-1.4848 7.0144c-1.024 4.5056-1.9968 9.0624-2.5088 13.056-1.024 6.0416-1.9968 12.032-2.5088 17.5616v1.9968c0 1.4848-0.512 3.5328-0.512 5.0176l-1.024 11.0592c-0.512 8.0384-1.024 16.5888-1.024 25.088v12.544c0 3.9936 0 8.0384 0.512 11.5712 0.512 5.0176 1.024 10.5472 1.4848 16.0768l1.024 8.0384c1.024 6.0416 1.9968 12.032 3.0208 17.5616l1.4848 6.5536c1.4848 6.0416 3.0208 12.032 4.5056 17.5616 0.512 2.5088 1.4848 4.5056 1.9968 6.5536 1.4848 5.5296 3.5328 11.0592 5.5296 16.5888 1.024 2.5088 1.9968 5.5296 3.0208 8.0384 1.9968 5.0176 3.9936 9.5232 6.0416 14.5408 1.4848 3.0208 3.0208 6.5536 5.0176 10.0352l2.5088 5.5296c1.024 2.5088 2.5088 4.5056 3.5328 7.0144 4.0448 7.0144 7.5264 13.568 12.032 20.0704l1.024 1.9968c6.0416 9.0624 12.544 18.0736 20.0704 27.648l3.0208 3.5328c7.0144 8.5504 14.08 16.5888 22.5792 25.088 8.0384 8.0384 16.5888 15.5648 25.1392 23.0912l3.9936 3.0208c7.0144 5.5296 14.08 11.0592 23.0912 17.1008l5.5296 3.9936c7.5264 5.0176 15.5648 9.5232 25.088 15.0528l3.9936 2.5088c2.5088 1.4848 5.5296 2.5088 8.5504 3.9936l6.5536 3.0208c5.5296 3.0208 11.0592 5.5296 17.1008 8.0384 5.5296 2.5088 11.0592 4.5056 16.5888 6.5536l7.5264 3.0208c3.0208 1.024 6.0416 2.5088 9.0624 3.5328 8.0384 2.5088 16.0768 4.5056 23.6032 6.5536l4.5056 1.024c2.5088 0.512 4.5056 1.4848 6.5536 1.4848 8.5504 1.9968 17.1008 3.5328 24.1152 4.5056l3.5328 0.512c2.5088 0.512 5.5296 1.024 8.5504 1.4848 7.5264 1.024 14.5408 1.4848 22.1184 1.9968l3.9936 0.512c3.5328 0.512 7.0144 0.512 11.0592 1.024h37.6832c3.5328 0 7.0144-0.512 10.5472-1.024l4.0448-0.512c7.5264-0.512 14.5408-1.4848 22.1184-1.9968 3.0208-0.512 5.5296-1.024 8.5504-1.4848l3.5328-0.512c7.5264-1.4848 15.5648-2.5088 24.1152-4.5056 2.5088-0.512 5.0176-1.4848 7.5264-1.9968l3.5328-1.024c7.5264-1.9968 16.0768-4.0448 23.6032-6.5536 3.0208-1.024 6.5536-1.9968 9.0624-3.5328l7.5264-3.0208c5.5296-1.9968 11.0592-3.9936 16.5888-6.5536 6.0416-2.5088 11.5712-5.0176 17.1008-8.0384l6.5536-3.0208c2.5088-1.024 5.0176-2.5088 8.0384-3.9936l6.0416-3.5328c8.0384-4.5056 15.5648-9.0624 23.6032-14.08 2.5088-1.4848 5.0176-3.5328 7.5264-5.0176 7.5264-5.0176 14.5408-10.5472 21.6064-16.0768l1.9968-1.4848 2.5088-1.9968c8.5504-7.0144 17.1008-14.5408 24.6272-22.5792l1.4848-1.4848c7.0144-7.0144 14.08-15.0528 21.6064-24.1152l2.5088-3.5328a400.0256 400.0256 0 0 0 20.0704-27.648l1.024-1.9968c4.5056-7.0144 8.5504-13.568 12.032-20.0704 1.4848-2.5088 2.5088-5.0176 3.9936-7.5264l2.5088-4.5056c1.4848-3.5328 3.0208-6.5536 5.0176-10.0352 1.9968-5.0176 4.0448-9.5232 6.0416-14.5408l3.0208-8.0384c1.9968-5.5296 4.0448-11.0592 5.5296-16.5888l1.9968-6.5536c1.4848-6.0416 3.0208-11.5712 4.5056-18.0736l1.4848-6.0416c1.024-6.0416 2.5088-12.032 3.0208-17.5616 0.512-1.9968 0.512-3.9936 0.512-6.0416l0.512-3.9936c0.512-5.0176 1.024-9.5232 1.4848-14.592 0-3.5328 0.512-7.5264 0.512-11.0592v-13.568c-1.6384-6.4512-2.1504-15.0016-2.6112-24.0128zM819.2 711.168l-1.024 5.0176c-1.024 4.5056-2.5088 9.5232-3.5328 14.08l-1.4848 5.0176c-1.4848 4.5056-3.0208 9.0624-4.5056 13.056l-2.5088 6.5536c-1.4848 4.0448-3.0208 7.5264-5.0176 11.5712-1.4848 2.5088-2.5088 5.0176-4.0448 7.5264l-2.5088 5.0176c-1.024 1.4848-1.4848 3.5328-2.5088 5.5296-3.0208 5.5296-6.0416 11.0592-10.5472 17.5616-4.5056 7.0144-10.0352 14.592-16.5888 22.5792l-2.5088 3.0208c-6.0416 7.0144-11.5712 13.568-18.5856 20.5824-6.5536 6.5536-13.056 12.544-20.0704 18.0736l-4.0448 3.0208c-5.5296 4.5056-11.5712 9.0624-17.5616 13.056l-6.0416 4.0448-19.6096 12.032-4.5056 2.5088c-1.4848 0.512-2.5088 1.4848-4.5056 1.9968-1.9968 1.024-3.5328 1.4848-5.5296 2.5088l-4.0448 1.9968c-3.9936 1.9968-8.0384 3.9936-12.544 6.0416-4.5056 1.9968-9.0624 3.5328-13.056 5.0176l-9.0624 3.5328c-1.9968 0.512-4.0448 1.4848-6.0416 1.9968-6.0416 1.9968-12.032 3.5328-20.0704 5.5296l-5.0176 1.4848c-1.4848 0.512-2.5088 0.512-3.9936 1.024-6.5536 1.4848-13.568 2.5088-20.5824 3.9936l-4.0448 0.512c-1.9968 0.512-3.5328 0.512-5.5296 1.024-6.0416 1.024-12.544 1.4848-18.5856 1.9968l-4.5056 0.512c-2.5088 0-5.5296 0.512-8.0384 0.512h-31.1296c-2.5088 0-5.5296-0.512-8.0384-0.512l-3.9936-0.512c-6.0416-0.512-12.544-1.024-18.5856-1.9968l-10.0352-1.4848c-6.5536-1.024-13.568-2.5088-20.0704-3.9936l-4.5056-1.4848-5.0176-1.4848c-6.5536-1.4848-12.544-3.5328-19.0976-5.5296-1.9968-0.512-3.5328-1.4848-6.5536-2.5088l-9.5232-3.5328-12.032-4.5056c-3.9936-1.4848-8.0384-4.0448-13.568-6.5536l-9.0624-4.5056c-1.024-0.512-2.5088-1.024-2.5088-1.024l-6.5536-3.5328c-6.5536-3.5328-13.056-7.5264-19.0976-11.5712l-6.0416-3.9936c-6.0416-3.9936-12.032-8.5504-17.5616-13.568l-3.5328-2.5088c-7.0144-6.0416-14.08-12.032-21.6064-20.0704-6.0416-6.0416-11.5712-12.544-17.5616-19.0976l-2.5088-3.0208a260.06016 260.06016 0 0 1-15.5648-21.0944l-1.9968-3.0208c-3.5328-5.0176-6.5536-10.5472-9.5232-16.0768l-3.0208-6.0416-1.9968-4.0448c-1.4848-2.5088-2.5088-5.0176-4.0448-7.5264-1.4848-3.9936-3.5328-7.5264-5.0176-11.5712-1.024-1.9968-1.4848-3.9936-2.5088-6.5536-1.4848-4.5056-3.0208-9.0624-4.5056-13.056l-1.4848-5.5296c-1.4848-4.5056-2.5088-9.5232-3.5328-14.08l-1.024-5.0176c-1.024-4.5056-1.9968-9.5232-2.5088-14.5408l-1.024-6.5536c-0.512-3.9936-1.024-8.5504-1.4848-12.544 0-3.0208 0-6.0416-0.512-9.0624l-0.512-10.5472c0-7.0144 0.512-13.568 1.024-19.6096l1.9968-16.5888c0.512-4.5056 1.024-9.5232 1.9968-14.592 0.512-3.5328 1.4848-7.0144 2.5088-12.032l1.024-5.0176C248.6272 392.1408 454.0416 159.0784 511.3344 97.28c57.2416 61.7984 262.7072 294.8096 304.384 491.7248l1.4848 6.0416c1.024 3.5328 1.4848 7.5264 1.9968 11.0592 1.024 5.0176 1.4848 9.5232 1.9968 14.08l1.9968 16.0768c0.512 6.5536 1.024 13.056 1.024 20.0704l-0.512 11.5712c0 2.5088 0 5.5296-0.512 8.0384 0 3.9936-0.512 7.5264-1.024 11.0592l-1.024 8.0384c0.0512 6.5536-0.9216 11.1104-1.9456 16.128z m18.0736-141.1584c1.9968-5.5296 2.5088-11.5712 2.5088-18.0736v-27.648c0-13.568-4.5056-26.112-12.544-36.6592 6.0416-24.6272 0.512-51.2512-15.5648-71.8336l-242.5856-309.9136c-36.6592-46.6944-108.4928-41.6768-138.1376 9.0624L190.8736 523.776c-12.544 21.0944-14.5408 45.7216-8.0384 67.328-3.0208 7.0144-4.5056 15.0528-4.5056 23.0912v128.1024c0 31.1296 23.6032 56.7808 53.76 59.7504-0.512 3.5328-1.024 7.0144-1.024 10.5472v1.4848c0 29.1328 21.0944 53.76 49.2032 59.2896 2.5088 25.088 24.1152 45.2096 49.7152 45.2096h26.112c-0.512 2.5088-1.024 5.5296-1.024 8.0384a38.1952 38.1952 0 0 0 38.1952 38.1952h261.1712a38.1952 38.1952 0 0 0 38.1952-38.1952c0-5.5296-1.024-11.0592-3.5328-15.5648h31.1296c31.6416 0 57.2416-24.6272 60.2624-55.2448 10.0352-11.0592 16.5888-25.088 16.5888-41.1648v-1.4848c0-3.5328-0.512-6.5536-1.024-10.0352h1.024c33.1776 0 60.2624-27.136 60.2624-60.2624v-128.1024c0-17.6128-7.9872-33.6896-20.0704-44.7488z m-65.792 81.8688c0 2.5088 0 5.0176-0.512 8.0384 0 3.0208-0.512 6.0416-1.024 9.0624l-1.024 7.5264c-0.512 3.9936-1.4848 8.0384-1.9968 12.032l-1.024 3.9936c-1.024 4.0448-1.9968 8.0384-3.0208 12.544l-1.4848 4.5056c-1.024 3.9936-2.5088 7.5264-3.9936 11.5712l-1.4848 4.5056c-1.9968 4.5056-3.0208 7.5264-4.5056 11.0592-1.024 2.5088-1.9968 5.0176-3.5328 7.0144l-3.9936 8.0384c-2.5088 4.5056-5.0176 9.0624-8.0384 14.08-5.0176 7.5264-9.0624 13.568-14.592 20.0704l-1.9968 2.5088c-5.0176 6.0416-9.5232 11.5712-14.592 16.5888a255.104 255.104 0 0 1-18.0736 16.5888l-3.0208 2.5088c-5.0176 3.9936-9.5232 7.5264-14.592 11.0592l-5.0176 3.5328c-5.5296 3.5328-11.0592 7.0144-16.5888 10.0352l-2.5088 1.4848-7.0144 3.5328-4.5056 1.9968c-3.9936 1.9968-7.5264 3.9936-11.5712 5.5296l-12.032 4.5056c-3.9936 1.4848-7.0144 1.9968-9.5232 1.9968-9.0624 0-17.5616-6.0416-20.5824-14.592-1.9968-5.5296-1.4848-11.5712 1.024-17.1008a21.93408 21.93408 0 0 1 12.544-11.5712l2.5088-1.024c3.0208-1.024 6.0416-1.9968 9.0624-3.5328 3.0208-1.4848 5.5296-2.5088 8.5504-3.9936l12.544-6.5536c5.0176-2.5088 9.0624-5.5296 13.568-8.0384l4.5056-3.0208 12.032-9.0624 2.5088-1.9968c4.5056-3.9936 9.5232-8.0384 14.08-12.544 5.0176-5.0176 9.0624-9.5232 13.056-14.08l1.4848-1.9968c4.5056-5.5296 8.0384-10.5472 11.5712-15.5648l0.512-1.024c2.5088-4.5056 5.0176-8.0384 6.5536-11.5712l2.5088-4.5056c1.9968-4.0448 3.0208-6.0416 4.0448-7.5264 1.4848-2.5088 2.5088-5.5296 3.5328-8.0384l1.4848-4.5056 3.0208-9.0624 1.024-4.0448c1.024-3.0208 1.4848-6.0416 2.5088-9.5232l0.512-3.5328c0.512-3.0208 1.4848-6.5536 1.4848-9.5232l0.512-5.0176c0.512-2.5088 0.512-5.5296 1.024-8.0384v-13.568c0-4.5056 0-9.0624-0.512-14.08l-1.4848-10.5472c-1.024-5.5296 1.024-11.5712 4.5056-16.0768 3.5328-5.0176 9.0624-7.5264 15.0528-8.5504 5.0176-1.024 11.5712 1.024 16.0768 4.5056 4.5056 3.5328 8.0384 9.0624 8.5504 15.0528l1.4848 11.5712c0.512 6.5536 1.024 12.032 1.024 18.0736l-0.6144 8.2944z m0 0" /></svg>