<?xml version="1.0" standalone="no"?><!DOCTYPE svg PUBLIC "-//W3C//DTD SVG 1.1//EN" "http://www.w3.org/Graphics/SVG/1.1/DTD/svg11.dtd"><svg class="icon" width="200px" height="200.00px" viewBox="0 0 1024 1024" version="1.1" xmlns="http://www.w3.org/2000/svg"><path d="M782.3872 987.0336H180.1728c-40.8576 0-74.0864-33.2288-74.0864-74.0864V207.36c0-40.8576 33.2288-74.0864 74.0864-74.0864h602.2144c40.8576 0 74.0864 33.2288 74.0864 74.0864v705.5872c0 40.8576-33.2288 74.0864-74.0864 74.0864z m-602.2144-788.48c-4.864 0-8.8064 3.9424-8.8064 8.8064v705.5872c0 4.864 3.9424 8.8064 8.8064 8.8064h602.2144c4.864 0 8.8064-3.9424 8.8064-8.8064V207.36c0-4.864-3.9424-8.8064-8.8064-8.8064H180.1728zM685.6192 476.3136H276.9408c-15.8208 0-28.6208-12.8-28.6208-28.6208v-0.2048c0-15.8208 12.8-28.6208 28.6208-28.6208h408.6272c15.8208 0 28.6208 12.8 28.6208 28.6208v0.2048a28.52864 28.52864 0 0 1-28.5696 28.6208zM685.6192 607.1808H276.9408c-15.8208 0-28.6208-12.8-28.6208-28.6208v-0.2048c0-15.8208 12.8-28.6208 28.6208-28.6208h408.6272c15.8208 0 28.6208 12.8 28.6208 28.6208v0.2048a28.52864 28.52864 0 0 1-28.5696 28.6208zM685.6192 738.048H276.9408c-15.8208 0-28.6208-12.8-28.6208-28.6208v-0.2048c0-15.8208 12.8-28.6208 28.6208-28.6208h408.6272c15.8208 0 28.6208 12.8 28.6208 28.6208v0.2048a28.55936 28.55936 0 0 1-28.5696 28.6208zM349.6448 259.0208c-18.0224 0-32.6144-14.592-32.6144-32.6144V73.5744c0-18.0224 14.592-32.6144 32.6144-32.6144s32.6144 14.592 32.6144 32.6144v152.832c0 18.0224-14.592 32.6144-32.6144 32.6144zM612.9152 259.0208c-18.0224 0-32.6144-14.592-32.6144-32.6144V73.5744c0-18.0224 14.592-32.6144 32.6144-32.6144s32.6144 14.592 32.6144 32.6144v152.832c0 18.0224-14.592 32.6144-32.6144 32.6144z" /></svg>