<svg id="图层_1" data-name="图层 1" xmlns="http://www.w3.org/2000/svg" viewBox="0 0 200 200"><title>图标</title><path d="M181.56,126.48h-11V100.67a9.86,9.86,0,0,0-9.69-10H105.37V74.75h19a12,12,0,0,0,12-12V29.33a12,12,0,0,0-12-12H76.21a12,12,0,0,0-12,12V62.75a12,12,0,0,0,12,12h19V90.67H39.72a9.86,9.86,0,0,0-9.69,10v25.81H18.94a10,10,0,0,0-10,10v36.6a10,10,0,0,0,10,10H53.06a10,10,0,0,0,10-10v-36.6a10,10,0,0,0-10-10H42V102.67H95.19v23.81h-12a10,10,0,0,0-10,10v36.6a10,10,0,0,0,10,10h34.12a10,10,0,0,0,10-10v-36.6a10,10,0,0,0-10-10h-12V102.67h53.16v23.81H147.44a10,10,0,0,0-10,10v36.6a10,10,0,0,0,10,10h34.12a10,10,0,0,0,10-10v-36.6A10,10,0,0,0,181.56,126.48ZM76.21,29.33h48.14V62.75H76.21ZM51.06,171.08H20.94v-32.6H51.06Zm64.28,0H85.22v-32.6h30.12Zm64.22,0H149.44v-32.6h30.12Z"/></svg>