<?xml version="1.0" encoding="utf-8"?>
<!-- Generator: Adobe Illustrator 22.0.0, SVG Export Plug-In . SVG Version: 6.00 Build 0)  -->
<svg version="1.1" id="图层_1" xmlns="http://www.w3.org/2000/svg" xmlns:xlink="http://www.w3.org/1999/xlink" x="0px" y="0px"
	 viewBox="0 0 200 200" style="enable-background:new 0 0 200 200;" xml:space="preserve">
<style type="text/css">
	.st0{display:none;}
	.st1{display:inline;}
</style>
<g class="st0">
	<path class="st1" d="M173.2,78.9c-3.2,0-5.8,2.6-5.8,5.8v80.1c0,3.2-2.6,5.8-5.8,5.8H32.2c-3.2,0-5.8-2.6-5.8-5.8V35.2
		c0-3.2,2.6-5.8,5.8-5.8h85.3c3.2,0,5.8-2.6,5.8-5.8s-2.6-5.8-5.8-5.8l0,0H32.2c-9.6,0-17.3,7.8-17.4,17.4v129.5
		c0,9.6,7.8,17.3,17.4,17.4h129.5c9.6,0,17.3-7.8,17.3-17.4V84.6C179,81.5,176.4,78.9,173.2,78.9z"/>
	<path class="st1" d="M82.4,94.1L82.4,94.1l-2.5,2.5l0,0L78.5,98l0,0c-0.4,0.4-0.8,0.8-1.2,1.3l-0.1,0.2c0,0.1-0.1,0.1-0.1,0.2v0.1
		v0.1c-0.2,0.3-0.3,0.7-0.4,1l0,0l0,0c-0.1,0.2-0.1,0.4-0.2,0.5l-0.2,0.7l-0.3,1c-0.1,0.4-0.2,0.8-0.3,1.3s-0.3,1-0.4,1.5l-0.5,1.7
		c-0.2,0.6-0.3,1.2-0.5,1.8s-0.3,1.2-0.5,1.9l-0.5,1.9c-0.2,0.6-0.3,1.3-0.5,1.9l-0.5,1.8l-0.5,1.7l-0.4,1.6
		c-0.1,0.4-0.3,0.9-0.4,1.3s-0.2,0.7-0.3,1.1l-0.2,0.8l-0.1,0.4c-0.4,1.4-0.6,2.9-0.7,4.4c-0.2,4.6,2.9,7.1,10.5,5.5l22.5-6.3
		l0.3-0.1l1-0.3l0.2-0.1l0,0l0,0c0.2-0.1,0.5-0.2,0.7-0.4l0,0l5-5l63.8-63.8c4.3-4.3,4.3-11.3,0-15.6c0,0,0,0,0,0l-11.7-11.5
		c-4.3-4.3-11.3-4.3-15.6,0c0,0,0,0,0,0L82.4,94.1L82.4,94.1z M81,123.1c-0.2,0.1-0.5-0.1-0.6-0.3c0-0.1,0-0.2,0-0.3l3.8-13.7
		l10.4,10.4L81,123.1z M103.7,113.6c-0.3,0.3-0.8,0.3-1,0c0,0,0,0,0,0l-12.5-12.5c-0.3-0.3-0.3-0.8,0-1.1l2.3-2.3l45.5-45.4
		l13.6,13.6l-45.4,45.4L103.7,113.6z M153,37.1c0.6-0.5,1.4-0.5,2,0l11.6,11.6c0.5,0.6,0.5,1.4,0,2l-8.4,8.4l-13.5-13.6L153,37.1z"
		/>
</g>
<g>
	<g>
		<path d="M63.7,179H25.2c-3.6,0-6.5-2.9-6.5-6.5v-0.1c0-3.6,2.9-6.5,6.5-6.5h38.5c3.6,0,6.5,2.9,6.5,6.5v0.1
			C70.2,176.1,67.3,179,63.7,179z"/>
	</g>
	<g>
		<path d="M174.9,33.8H25.2c-3.6,0-6.5-2.9-6.5-6.5v-0.1c0-3.6,2.9-6.5,6.5-6.5h149.7c3.6,0,6.5,2.9,6.5,6.5v0.1
			C181.4,30.9,178.5,33.8,174.9,33.8z"/>
	</g>
	<g>
		<path d="M83.9,82.2H25.2c-3.6,0-6.5-2.9-6.5-6.5v-0.1c0-3.6,2.9-6.5,6.5-6.5h58.7c3.6,0,6.5,2.9,6.5,6.5v0.1
			C90.4,79.3,87.5,82.2,83.9,82.2z"/>
	</g>
	<g>
		<path d="M63.9,130.6H25.2c-3.6,0-6.5-2.9-6.5-6.5V124c0-3.6,2.9-6.5,6.5-6.5h38.7c3.6,0,6.5,2.9,6.5,6.5v0.1
			C70.4,127.7,67.5,130.6,63.9,130.6z"/>
	</g>
	<g>
		<g>
			<path d="M138.9,141.5h-19c-2.6,0-4.7-2.1-4.7-4.7v-0.1c0-2.6,2.1-4.7,4.7-4.7h19c2.6,0,4.7,2.1,4.7,4.7v0.1
				C143.6,139.4,141.5,141.5,138.9,141.5z"/>
		</g>
		<g>
			<path d="M115.1,136.8v-19c0-2.6,2.1-4.7,4.7-4.7h0.1c2.6,0,4.7,2.1,4.7,4.7v19c0,2.6-2.1,4.7-4.7,4.7h-0.1
				C117.3,141.5,115.1,139.4,115.1,136.8z"/>
		</g>
	</g>
	<g>
		<path d="M129.4,179.3c-28.7,0-52-23.3-52-52c0-28.7,23.3-52,52-52c28.7,0,52,23.3,52,52C181.4,156,158,179.3,129.4,179.3z
			 M129.4,87.9c-21.7,0-39.4,17.7-39.4,39.4s17.7,39.4,39.4,39.4s39.4-17.7,39.4-39.4S151.1,87.9,129.4,87.9z"/>
	</g>
</g>
</svg>
