<svg id="图层_1" data-name="图层 1" xmlns="http://www.w3.org/2000/svg" viewBox="0 0 200 200"><title>图标</title><path d="M166.1,48.08A7.08,7.08,0,0,0,159,41c-21.37,0-41.31-7.34-54.72-20.15a7,7,0,0,0-9.87,0C81,33.62,61,41,39.64,41a6.77,6.77,0,0,0-7.15,7.15v60c0,19.58,10.5,38.11,28.08,49.57l34.7,22a5.42,5.42,0,0,0,3.84,1.58,8,8,0,0,0,4.17-1.34l34.84-22.12a61.31,61.31,0,0,0,20.67-21.59,57.45,57.45,0,0,0,7.31-28l.5-40.43v0Zm-10.94,20-.48,39.46a45.87,45.87,0,0,1-6.13,22.74,49.53,49.53,0,0,1-17,17.45l-32.29,21-32.3-21c-14.45-8.94-23.09-24-23.09-40.2V51.7l2-.1c20.3-1,38.7-7.77,51.8-19.15l1.4-1.22,1.41,1.21C113.87,43.88,132,50.51,153.12,51.59l2,.11Z"/><path d="M124.33,82.08a4.9,4.9,0,0,0-6.92.12L92.07,107.54,81.67,97.05A4.9,4.9,0,1,0,74.74,104l13.85,14A4.88,4.88,0,0,0,93,119.23a5.05,5.05,0,0,0,2.57-1.3L124.33,89A5,5,0,0,0,124.33,82.08Z"/></svg>