<svg id="图层_1" data-name="图层 1" xmlns="http://www.w3.org/2000/svg" viewBox="0 0 200 200"><title>图标</title><path d="M118.21,45.16H71.35c-4.26,0-7.91,2.81-7.91,6.09s3.65,6.09,7.91,6.09h46.86c4.26,0,7.91-2.81,7.91-6.09C126.73,48,123.08,45.16,118.21,45.16ZM47,43.28a8.44,8.44,0,1,0,8.44,8.44A8.72,8.72,0,0,0,47,43.28Zm58.59,54.38a6,6,0,0,0-7.5,4.21L85.47,149.69a6,6,0,0,0,4.22,7.5h1.4a6.48,6.48,0,0,0,6.1-4.69l12.65-47.81c1.41-2.82-.93-6.1-4.21-7Zm27.66,6.56c-3.27-3.28-10.21-2-10.58,3.9a7.25,7.25,0,0,0,2.17,5.5l12.63,12.63-13,13a6.49,6.49,0,0,0-.16,9,5.73,5.73,0,0,0,4.23,1.9,5.07,5.07,0,0,0,4.22-1.88l17.82-17.81a6.34,6.34,0,0,0,0-8.91ZM169.38,18H30.63A12.66,12.66,0,0,0,18,30.62V169.38A12.66,12.66,0,0,0,30.62,182H169.38A12.66,12.66,0,0,0,182,169.38V30.16A12.5,12.5,0,0,0,169.38,18ZM36.63,30.16H163.38a6,6,0,0,1,6,6V70.47H30.63V36.16A6,6,0,0,1,36.63,30.16Zm-6,133.22V83.59H169.38v79.79a6,6,0,0,1-6,6H36.63A6,6,0,0,1,30.63,163.38Zm45-59.63a6.53,6.53,0,0,0-8.91,0L48.91,121.56a6.32,6.32,0,0,0,0,8.91l17.81,17.81a5.72,5.72,0,0,0,4.22,1.88,5.1,5.1,0,0,0,4.22-1.88,6.52,6.52,0,0,0,0-8.9L62.5,125.78l13.13-13.12A5.76,5.76,0,0,0,75.63,103.75Z"/></svg>