<svg id="图层_1" data-name="图层 1" xmlns="http://www.w3.org/2000/svg" viewBox="0 0 200 200"><title>开发帮助</title><path d="M98.76,57.33c7.56,0,13.69,2,18.41,6.26s7.08,9.81,7.08,16.88c0,5.78-1.53,10.61-4.49,14.39-1.05,1.3-4.37,4.38-9.9,9.21a19.82,19.82,0,0,0-5,6.13A16,16,0,0,0,103,118v2H90.37v-2a23.56,23.56,0,0,1,2.34-11.2c1.54-3.3,6-8.15,13.34-14.64l2-2.24a13.73,13.73,0,0,0,3.3-8.62c0-4.13-1.18-7.32-3.42-9.67s-5.78-3.54-10-3.54c-5.32,0-9.2,1.65-11.57,5.08q-3.18,4.26-3.18,12H70.74c0-8.62,2.49-15.34,7.43-20.3S90,57.33,98.76,57.33Zm-2.11,69.05a8.49,8.49,0,0,1,6.26,2.35,7.89,7.89,0,0,1,2.48,6,8.32,8.32,0,0,1-2.59,6.12,8.85,8.85,0,0,1-6.14,2.36,8.44,8.44,0,0,1-6.13-2.49,8.23,8.23,0,0,1-2.49-6,7.86,7.86,0,0,1,2.49-6,8.31,8.31,0,0,1,6.12-2.34Z"/><path d="M97.49,183.21a82.93,82.93,0,1,1,82.93-82.93A83,83,0,0,1,97.49,183.21Zm0-153.86a70.93,70.93,0,1,0,70.93,70.93A71,71,0,0,0,97.49,29.35Z"/></svg>