<svg id="图层_1" data-name="图层 1" xmlns="http://www.w3.org/2000/svg" viewBox="0 0 200 200"><title>图标</title><path d="M160.77,141.08H130.92v-13h29.85a5.7,5.7,0,0,0,5.69-5.69v-86a5.7,5.7,0,0,0-5.69-5.69H39.23a5.7,5.7,0,0,0-5.69,5.69v86a5.7,5.7,0,0,0,5.69,5.69h92.58v13H39.23A18.7,18.7,0,0,1,20.55,122.4v-86A18.7,18.7,0,0,1,39.23,17.76H160.77a18.7,18.7,0,0,1,18.68,18.68v86A18.7,18.7,0,0,1,160.77,141.08Z"/><rect x="89.67" y="6.32" width="12.99" height="103.03" rx="6.5" ry="6.5" transform="translate(154 -38.32) rotate(90)"/><rect x="96.16" y="128.11" width="12.99" height="47.89"/><rect x="93.5" y="131.99" width="12.99" height="87.59" rx="6.5" ry="6.5" transform="translate(275.78 75.78) rotate(90)"/><rect x="115.18" y="45.84" width="15.5" height="24"/><rect x="89.67" y="47.45" width="12.99" height="103.03" rx="6.5" ry="6.5" transform="translate(195.13 2.81) rotate(90)"/><rect x="61.64" y="86.97" width="15.5" height="24" transform="translate(138.79 197.94) rotate(-180)"/></svg>