<?xml version="1.0" encoding="utf-8"?>
<!-- Generator: Adobe Illustrator 22.0.0, SVG Export Plug-In . SVG Version: 6.00 Build 0)  -->
<svg version="1.1" id="图层_1" xmlns="http://www.w3.org/2000/svg" xmlns:xlink="http://www.w3.org/1999/xlink" x="0px" y="0px"
	 viewBox="0 0 200 200" style="enable-background:new 0 0 200 200;" xml:space="preserve">
<style type="text/css">
	.st0{display:none;fill:#FFFFFF;}
	.st1{display:none;}
	.st2{display:inline;}
</style>
<rect x="0.2" y="0.2" class="st0" width="200" height="200"/>
<g class="st1">
	<path class="st2" d="M74.5,97.5C74.5,97.5,74.5,97.5,74.5,97.5l-3.1,3.3c0,0,0,0,0,0c0,0,0,0,0,0c-0.6,0.6-1.1,1.2-1.7,1.7
		c0,0,0,0,0,0c-0.5,0.5-1.1,1.1-1.5,1.7c-0.1,0.1-0.1,0.2-0.2,0.2c0,0.1-0.1,0.1-0.1,0.2l-0.1,0.1l0,0.1c-0.2,0.4-0.4,0.9-0.5,1.3
		l0,0.1c0,0,0,0,0,0c0,0,0,0,0,0c-0.1,0.2-0.1,0.5-0.2,0.7c-0.1,0.3-0.2,0.6-0.2,0.8c-0.1,0.4-0.2,0.8-0.3,1.3
		c-0.1,0.5-0.3,1.1-0.4,1.6c-0.2,0.6-0.3,1.3-0.5,1.9c-0.2,0.7-0.4,1.4-0.6,2.1c-0.2,0.8-0.4,1.5-0.6,2.3c-0.2,0.8-0.4,1.6-0.7,2.4
		c-0.2,0.8-0.4,1.6-0.7,2.5c-0.2,0.8-0.4,1.6-0.7,2.5c-0.2,0.8-0.4,1.6-0.6,2.4c-0.2,0.7-0.4,1.5-0.6,2.2c-0.2,0.7-0.4,1.3-0.5,2
		c-0.2,0.6-0.3,1.2-0.5,1.8c-0.1,0.5-0.3,0.9-0.4,1.4c-0.1,0.3-0.2,0.7-0.3,1c-0.1,0.2-0.1,0.4-0.2,0.6c-0.5,1.9-0.7,3.7-0.8,5.7
		c-0.3,6,3.6,9.2,13.1,7.2l28.1-8.2l0.3-0.1l1.2-0.4c0.1,0,0.2-0.1,0.2-0.1l0,0c0,0,0,0,0.1,0c0.3-0.1,0.6-0.3,0.8-0.5l0,0l6.2-6.4
		l76.3-79.5c5.4-5.6,5.4-14.8,0-20.4l-14.4-15c-5.4-5.6-14.2-5.6-19.6,0L74.5,97.5C74.5,97.5,74.5,97.5,74.5,97.5z M71.3,136.6
		c-0.4,0.1-0.7-0.2-0.6-0.6l6.4-22.3L92.8,130L71.3,136.6z M100.7,120.5c-0.3,0.3-0.8,0.3-1.1,0l-13.2-13.8c-0.3-0.3-0.3-0.8,0-1.2
		l6.5-6.7l47.9-49.9l14.3,14.9l-47.9,49.9L100.7,120.5z M160.2,28.8c0.6-0.6,1.6-0.6,2.1,0l12.2,12.7c0.6,0.6,0.6,1.6,0,2.2
		l-12.2,12.7L148,41.4L160.2,28.8z"/>
	<g class="st2">
		<path d="M173,187.7H27.6c-11,0-20-9-20-20V33.3c0-11,9-20,20-20h79.5c4.1,0,7.4,3.3,7.4,7.4s-3.3,7.4-7.4,7.4H27.6
			c-2.8,0-5.3,2.4-5.3,5.3v134.4c0,2.8,2.4,5.3,5.3,5.3H173c2.8,0,5.3-2.4,5.3-5.3V88.6c0-4.1,3.3-7.4,7.4-7.4s7.4,3.3,7.4,7.4v79.1
			C193,178.7,184.1,187.7,173,187.7z"/>
	</g>
</g>
<g class="st1">
	<path class="st2" d="M178.1,43.1h-37.7C138.7,22.3,121.3,6,100.2,6S61.6,22.3,60,43.1H22.2c-3.4,0-6.1,2.7-6.1,6.1V52
		c0,3.4,2.7,6.1,6.1,6.1h11.5v109.2c0,15.2,12.3,27.6,27.5,27.6h77.9c15.1,0,27.5-12.4,27.5-27.6V58.1h11.5c3.4,0,6.1-2.7,6.1-6.1
		v-2.9C184.2,45.8,181.4,43.1,178.1,43.1z M100.2,21c12.8,0,23.5,9.6,25.1,22H75.1C76.7,30.7,87.3,21,100.2,21z M151.6,167.3
		c0,6.9-5.6,12.5-12.4,12.5H61.2c-6.9,0-12.4-5.6-12.4-12.5V58.1h102.8V167.3z"/>
	<path class="st2" d="M71.6,155h2.9c3.4,0,6.1-2.7,6.1-6.1V98.4c0-3.4-2.7-6.1-6.1-6.1h-2.9c-3.4,0-6.1,2.7-6.1,6.1V149
		C65.5,152.3,68.3,155,71.6,155z"/>
	<path class="st2" d="M98.7,155h2.9c3.4,0,6.1-2.7,6.1-6.1V98.4c0-3.4-2.7-6.1-6.1-6.1h-2.9c-3.4,0-6.1,2.7-6.1,6.1V149
		C92.6,152.3,95.4,155,98.7,155z"/>
	<path class="st2" d="M125.8,155h2.9c3.4,0,6.1-2.7,6.1-6.1V98.4c0-3.4-2.7-6.1-6.1-6.1h-2.9c-3.4,0-6.1,2.7-6.1,6.1V149
		C119.7,152.3,122.5,155,125.8,155z"/>
</g>
<g class="st1">
	<path class="st2" d="M170.4,170.9H29.8c-13.6,0-24.7-11.1-24.7-24.7V56.1c0-13.6,11.1-24.7,24.7-24.7h140.6
		c13.6,0,24.7,11.1,24.7,24.7v90.2C195.1,159.9,184,170.9,170.4,170.9z M31.3,46.3c-5.9,0-10.7,4.8-10.7,10.7v88.2
		c0,5.9,4.8,10.7,10.7,10.7h137.5c5.9,0,10.7-4.8,10.7-10.7V57.1c0-5.9-4.8-10.7-10.7-10.7H31.3z"/>
	<path class="st2" d="M135.4,125.6h-31.7c-3.3,0-5.9,2.9-5.9,6.5c0,3.6,2.7,6.5,5.9,6.5h31.7c3.3,0,5.9-2.9,5.9-6.5
		C141.3,128.5,138.7,125.6,135.4,125.6z"/>
	<path class="st2" d="M79.9,106.1L57.5,83.7c-2.3-2.3-6.3-2.1-8.8,0.4c-2.6,2.6-2.7,6.5-0.4,8.8l22.4,22.4c2.3,2.3,6.3,2.1,8.8-0.4
		C82.1,112.4,82.2,108.4,79.9,106.1z"/>
	<path class="st2" d="M70.9,105.4l-22.4,22.4c-2.3,2.3-2.1,6.3,0.4,8.8c2.6,2.6,6.5,2.7,8.8,0.4l22.4-22.4c2.3-2.3,2.1-6.3-0.4-8.8
		C77.2,103.3,73.2,103.1,70.9,105.4z"/>
</g>
<g class="st1">
	<path class="st2" d="M42.8,169.1c-2.1,0-4.1-0.8-5.7-2.4c-15.7-16.3-24.4-37.8-24.4-60.5c0-30.3,15.3-57.9,41-74
		c3.7-2.3,8.5-1.2,10.8,2.5c2.3,3.7,1.2,8.5-2.5,10.8c-21.1,13.2-33.6,35.9-33.6,60.7c0,18.6,7.1,36.2,20,49.6
		c3,3.1,2.9,8.1-0.2,11.1C46.7,168.4,44.8,169.1,42.8,169.1z"/>
	<path class="st2" d="M100,193.5c-11.8,0-23.3-2.3-34.1-6.9c-0.4-0.2-0.7-0.3-1.1-0.5c-0.4-0.2-0.8-0.4-1.2-0.5
		c-3.9-1.8-5.7-6.5-3.9-10.4c1.8-3.9,6.5-5.7,10.4-3.9c0.3,0.2,0.7,0.3,1,0.5c0.3,0.1,0.6,0.3,0.9,0.4c8.8,3.8,18.3,5.7,28,5.7
		c26.9,0,51.3-14.9,63.6-38.8c2-3.9,6.7-5.4,10.6-3.4c3.9,2,5.4,6.7,3.4,10.6C162.6,175.3,132.9,193.5,100,193.5z"/>
	<path class="st2" d="M179.4,114.1c-4.3,0-7.9-3.5-7.9-7.9c0-2.7-0.2-5.4-0.5-8.1c-3.7-32.8-30.1-59.2-62.9-63
		c-2.7-0.3-5.5-0.5-8.2-0.5c-4.3,0-7.9-3.5-7.9-7.9S95.7,19,100,19c3.3,0,6.7,0.2,10,0.6c19.5,2.2,37.8,11.1,51.7,25
		c13.9,13.9,22.8,32.3,24.9,51.8c0.4,3.2,0.5,6.6,0.5,9.8C187.3,110.6,183.8,114.1,179.4,114.1z"/>
	<polygon class="st2" points="50.2,174.3 52.8,141.1 18.4,164.4 	"/>
	<polygon class="st2" points="80.9,27.4 106.9,48.2 106.9,6.7 	"/>
	<polygon class="st2" points="177.1,124.4 148,140.5 186.4,156.4 	"/>
	<g class="st2">
		<path d="M119.4,151.1L113,126H88l-5,25.1H67.4l23.7-89.6h18.1l24.7,89.6H119.4z M109.8,112.8c0,0-6.5-38.8-7.1-40.6H98
			c-0.5,1.8-7.1,40.6-7.1,40.6H109.8z"/>
	</g>
</g>
<g class="st1">
	<path class="st2" d="M51.5,62.4h1.4c2.8-0.6,4.8-3.2,4.8-6.1c0-1.3-0.2-2.5-0.7-3.7c-1.2-2.8-1.8-5.7-1.8-8.7
		c0.1-6.7,2.9-13.1,7.8-17.8c4.9-4.6,11.4-7.2,18.1-7c6.7-0.2,13.3,2.3,18.2,6.9c4.9,4.6,7.8,11,7.9,17.8c0,0.6,0,1.3,0,1.9
		c-0.3,2.7,1.5,5.2,4.1,5.9c1.9,0.5,4,0.1,5.6-1.1c1.6-1.2,2.7-3,2.8-4.9v-1.6c0.1-10-4-19.5-11.2-26.4c-7.4-7-17.1-10.8-27.2-10.8
		C60.3,6.3,43,22.8,42.5,43.8c0,5.3,1.2,10.5,3.4,15.3C46.9,61.1,49.1,62.5,51.5,62.4L51.5,62.4z M51.5,62.4"/>
	<path class="st2" d="M81,24.8c-10.5,0.1-19.1,8.4-19.5,18.9v60.5c0,0.6-0.4,1.1-1,1.4c-0.3,0.1-0.6,0.1-1,0l-6-5.7
		c-3.7-3.4-8.6-5.2-13.6-5.2c-5,0.1-9.8,1.9-13.6,5.2c-3.5,3.1-5.8,7.4-6.5,12c-1,5.7,0.4,11.5,3.7,16.2l9.8,13.6
		c10.5,13.6,25.1,29.1,29.4,34.2c13.6,17.4,32.4,18.5,51.6,18.5h7.9c24,0,42.1-5.9,48.9-21.8c5.8-13.5,10.3-27.8,9.1-42.6V95.1
		c0-10.5-8.5-18.9-18.9-18.9h-0.8c-2.9,0-5.8,0.6-8.4,1.9c-3.1-6.8-9.9-11.1-17.3-11c-3.1,0-6.1,0.7-8.9,2
		c-3.1-6.8-9.9-11.2-17.4-11.2c-2.3,0-4.6,0.4-6.8,1.2V43.9c0-5.2-2.1-10.2-5.8-13.8c-3.8-3.6-8.8-5.5-14.1-5.2H81z M61,120.3
		c3.5-0.4,6.6-1.2,9.2-3.8c2.4-2.4,3.8-5.8,3.8-9.2V45.7c-0.2-2,0.6-4.1,2.1-5.5c1.3-1.2,2.9-1.9,4.7-1.9c1.7,0,3.4,0.7,4.6,1.9
		c1.2,1.2,1.8,2.9,1.8,4.6v57c0.4,3.2,3.1,5.5,6.3,5.5c3.2,0,5.9-2.4,6.3-5.5V78.3c0-1.7,0.6-3.4,1.8-4.7c1.2-1.2,2.9-1.9,4.6-1.9
		c3.3,0,6.9,0,6.9,6.7v30.9c0,3.6,2.9,6.5,6.5,6.5s6.5-2.9,6.5-6.5V87c0-1.7,0.6-3.4,1.8-4.7c1.2-1.2,2.9-1.9,4.6-1.9
		c4.8,0,7.1,2.3,7.1,6.7v27.4c0.4,3.2,3.1,5.5,6.3,5.5c3.2,0,5.8-2.4,6.2-5.5c0-4.1-0.1-8.3,0-12.4c0-3.2-0.6-7.1,1.1-10
		c2.5-4.4,8.7-5.9,13.4-5c3.9,0.7,3.9,5.4,3.9,8.5l-1.7,33.8c-0.3,14-4.3,24.8-9.3,35.7c-4,11.8-16.9,18.1-37.4,18.1h-5.6
		c-8,0-16.1-0.5-24.1-1.4c-8.3-1.4-15.7-6-20.6-12.8l-38.2-48.5c-1.5-1.3-2.4-3.2-2.4-5.2c0-2,0.9-3.9,2.4-5.2c3.3-2.7,8-2.7,11.3,0
		l2.3,2.2c0,0,4.8,4.7,4.8,4.7c1.2,1.1,2.7,2,4.2,2.6C56.8,120,59.1,120.4,61,120.3z"/>
</g>
<path d="M184.3,88.2l-46.6-57c-4.1-5-10.8-6.7-16.8-4.2c-5.5,2.3-8.9,7.9-8.9,13.9l0,24.1c0,0,0,0,0,0.1c-7.2,1.1-14.5,2.7-21.6,5
	c-26,8.3-48.2,23.5-62.4,42.9c-4.4,6-8.1,12.6-10.7,19.6c-2.4,6.5-3.9,13.3-4.2,20.2c-0.2,3.1-0.1,6.2,0.1,9.2
	c0.3,3.4,0.9,8.7,3.7,11.1c2.7,2.3,6.6,1.6,9.4,0c4.1-2.3,6.6-6.9,9.6-10.4c3.1-3.6,6.5-7,10.1-10.1c7.7-6.5,16.5-11.8,25.7-15.8
	c3.1-1.3,6.3-2.5,9.6-3.6c10.1-3.2,20.6-4.9,30.8-5c0,0,0.1,0,0.1,0.1l0,25.6c0,5.9,3.3,11.4,8.6,13.7c1.9,0.9,4,1.3,5.9,1.3
	c4.2,0,8.3-1.9,11.2-5.3l46.6-56.9C188.7,101.2,188.7,93.5,184.3,88.2z M126.6,154.2C126.6,154.2,126.5,154.2,126.6,154.2l-0.1-36.9
	l0-3.1c0,0,0-0.1-0.1-0.1l-5.3-0.1c-15,0-29.8,0.8-44.4,5.4c-19.8,6.3-37,17.2-49.5,30.8c0,0-0.1,0-0.1,0
	c1.4-9.6,5.6-19.3,12.4-28.6c12.4-17,32-30.3,55.1-37.7c10.5-3.4,21.3-5.3,31.9-5.7c0,0,0.1-0.1,0.1-0.1l-0.1-11l0-0.4l0-26.1
	c0-0.1,0.1-0.1,0.1,0L173,97.3c0,0,0,0,0,0.1L126.6,154.2z"/>
<path class="st1" d="M182.8,25.1c0-0.1,0-0.2,0.1-0.3c0-0.1,0-0.2,0-0.3c0-0.1,0-0.2,0-0.3c0-0.1,0-0.2,0-0.4c0-0.1,0-0.1,0-0.2
	c0-0.1,0-0.3,0-0.4c0,0,0-0.1,0-0.1c0-0.2,0-0.3-0.1-0.5c0,0,0-0.1,0-0.1c0-0.2-0.1-0.3-0.1-0.5c0-0.2-0.1-0.4-0.2-0.5
	c0,0,0,0,0-0.1c-0.2-0.4-0.3-0.8-0.6-1.1c0-0.1-0.1-0.1-0.1-0.2c-0.1-0.1-0.1-0.2-0.2-0.3c-0.1-0.1-0.2-0.2-0.3-0.4
	c0,0-0.1-0.1-0.1-0.1c-0.4-0.5-1-0.9-1.5-1.2c-0.1-0.1-0.2-0.1-0.3-0.2c-0.1,0-0.1-0.1-0.2-0.1c-0.1-0.1-0.3-0.1-0.4-0.2
	c-0.1,0-0.1,0-0.2-0.1c-0.1,0-0.3-0.1-0.4-0.1c-0.1,0-0.1,0-0.2-0.1c-0.1,0-0.2,0-0.3-0.1c-0.1,0-0.2,0-0.3,0c-0.1,0-0.2,0-0.2,0
	c-0.1,0-0.2,0-0.4,0c-0.1,0-0.1,0-0.2,0c-0.1,0-0.3,0-0.4,0c0,0-0.1,0-0.1,0c-0.2,0-0.3,0-0.5,0.1c0,0-0.1,0-0.1,0
	c-0.2,0-0.3,0.1-0.5,0.1c-0.2,0.1-0.4,0.1-0.6,0.2c0,0,0,0,0,0c-0.2,0.1-0.4,0.2-0.6,0.3L21.2,95.3c-2,1-3.2,2.9-3.4,4.9
	c-0.5,2.6,0.8,5.4,3.2,6.8l38.7,20.7c0.9,0.5,2,0.8,3,0.8c2.3,0,4.5-1.2,5.6-3.4c1.7-3.1,0.5-7-2.6-8.6l-28.3-15.2l113.7-57.5
	L81.8,125c-0.1,0.1-0.1,0.1-0.1,0.2c-1.7,1.1-2.8,3.1-2.8,5.3v46.8c0,3.5,2.8,6.4,6.4,6.4c3.5,0,6.4-2.8,6.4-6.4v-44.1l75.7-88.7
	l-15.7,117l-39.9-19.6c-3.2-1.5-7-0.2-8.5,2.9c-1.5,3.2-0.2,7,2.9,8.5l47.4,23.3c0.9,0.4,1.8,0.7,2.8,0.7c0,0,0,0,0,0
	c0.1,0,0.3,0,0.4,0c3.1,0,5.9-2.3,6.3-5.5l19.6-146.2c0-0.1,0-0.2,0.1-0.3C182.7,25.3,182.7,25.2,182.8,25.1z"/>
</svg>
