<svg id="图层_1" data-name="图层 1" xmlns="http://www.w3.org/2000/svg" viewBox="0 0 200 200"><title>图标</title><path d="M174.79,130.26,97.3,167.16l-77.49-36.9c-3.69-1.48-8.12,0-9.6,3a8.07,8.07,0,0,0,3,9.59l81.18,38.38a5.89,5.89,0,0,0,3.08,1.06,6.06,6.06,0,0,0,2.82-1.06l81.18-38.38c2.95-2.21,3.69-5.16,2.21-8.11-2.21-3.69-5.9-5.17-8.85-4.43Zm7.38-36.16a8,8,0,0,0-8.12,0L96.56,131,19.07,94.1a8.74,8.74,0,0,0-7.38.73,6.73,6.73,0,0,0-2.95,5.91,7.5,7.5,0,0,0,3.69,5.9L93.61,145c.74.74,1.47.74,3,.74.74,0,2.21,0,3-.74l81.18-38.38c2.1-1,4.13-1.9,5.37-4a3.32,3.32,0,0,0,.46-1.12c.19-1.17-.73-3.14-1.24-4.19A7,7,0,0,0,182.17,94.1ZM12.43,70.48l81.18,38.38h5.9l81.18-38.38c2.21-1.48,4.43-3.69,3.69-6.64V63.1a7.75,7.75,0,0,0-3.69-6.64L99.51,18.08h0A6,6,0,0,0,96.14,18l-.24.06-2.29.74L12.43,57.93c-2.22.74-3.69,3.69-3.69,5.91A7.74,7.74,0,0,0,12.43,70.48Zm84.13-36.9,65.68,31-65.68,31L31.62,63.84Z"/></svg>