<svg id="图层_1" data-name="图层 1" xmlns="http://www.w3.org/2000/svg" viewBox="0 0 200 200"><title>图标</title><path d="M166.05,48.23a7.07,7.07,0,0,0-7.15-7.1c-21.35,0-41.28-7.32-54.67-20.09a7,7,0,0,0-9.87,0C81,33.81,61,41.13,39.69,41.13a6.76,6.76,0,0,0-7.15,7.13v59.79c0,19.53,10.5,38,28.06,49.43l34.67,22A5.45,5.45,0,0,0,99.11,181a7.94,7.94,0,0,0,4.16-1.34l34.82-22.06a61.13,61.13,0,0,0,20.65-21.52,57.18,57.18,0,0,0,7.31-27.9l.49-40.3v0ZM136.86,83.47,93.51,126.93a7.67,7.67,0,0,1-3.88,1.95A7.27,7.27,0,0,1,83.06,127L62.21,106a7.36,7.36,0,1,1,10.43-10.4l15.65,15.77,38.15-38.07a7.36,7.36,0,0,1,10.42-.19A7.47,7.47,0,0,1,136.86,83.47Z"/></svg>