<svg id="图层_1" data-name="图层 1" xmlns="http://www.w3.org/2000/svg" viewBox="0 0 200 200"><title>图标</title><path d="M166.33,17.19H34.67a17,17,0,0,0-17,17V165.85a17,17,0,0,0,17,17H166.33a17,17,0,0,0,17-17V34.19A17,17,0,0,0,166.33,17.19Zm-131.66,10H166.33a7,7,0,0,1,7,7V66.58H27.67V34.19A7,7,0,0,1,34.67,27.19ZM166.33,172.85H34.67a7,7,0,0,1-7-7V79H173.33v86.88A7,7,0,0,1,166.33,172.85Z"/><circle cx="46.02" cy="48.65" r="8.28"/><path d="M77.15,56.93a8.28,8.28,0,1,0-8.28-8.28A8.28,8.28,0,0,0,77.15,56.93Z"/><polygon points="54.43 92.91 47.01 100.33 73.31 126.64 46.96 153 54.37 160.42 82.31 132.47 88.16 126.64 54.43 92.91"/><rect x="100" y="123.01" width="47.7" height="12.39"/></svg>