<svg id="图层_1" data-name="图层 1" xmlns="http://www.w3.org/2000/svg" viewBox="0 0 200 200"><title>图标</title><path d="M160.14,161.13h-125a18,18,0,0,1-18-18v-106a18,18,0,0,1,18-18h125a18,18,0,0,1,18,18v106A18,18,0,0,1,160.14,161.13Zm-125-130a6,6,0,0,0-6,6v106a6,6,0,0,0,6,6h125a6,6,0,0,0,6-6v-106a6,6,0,0,0-6-6Z"/><rect x="15.06" y="171.05" width="165.17" height="12" rx="6" ry="6"/><path d="M41.39,132.51a5.94,5.94,0,0,1-3.75-1.32,6,6,0,0,1-.93-8.44l34-42.43a12.06,12.06,0,0,1,14.79-3.19L115.27,92.2l34-42.2a6,6,0,1,1,9.35,7.52L124.62,99.73a12.06,12.06,0,0,1-14.78,3.18L80.11,87.83l-34,42.43A6,6,0,0,1,41.39,132.51Z"/></svg>