<?xml version="1.0" encoding="utf-8"?>
<!-- Generator: Adobe Illustrator 22.0.0, SVG Export Plug-In . SVG Version: 6.00 Build 0)  -->
<svg version="1.1" id="图层_1" xmlns="http://www.w3.org/2000/svg" xmlns:xlink="http://www.w3.org/1999/xlink" x="0px" y="0px"
	 viewBox="0 0 200 200" style="enable-background:new 0 0 200 200;" xml:space="preserve">
<style type="text/css">
	.st0{display:none;}
	.st1{display:none;fill:#EA2121;}
	.st2{fill:#2089F6;}
	.st3{fill:#000333;}
	.st4{fill:none;}
	.st5{fill:#333333;}
	.st6{fill:none;stroke:#000333;stroke-width:22;stroke-linecap:round;stroke-miterlimit:10;}
	.st7{fill:none;stroke:#000333;stroke-width:22;stroke-miterlimit:10;}
	.st8{fill:none;stroke:#000000;stroke-width:22;stroke-miterlimit:10;}
	.st9{fill:none;stroke:#52C9BF;stroke-width:5.9619;stroke-miterlimit:10;}
	.st10{fill:#52C9BF;}
	.st11{fill:none;stroke:#52C9BF;stroke-width:6;stroke-miterlimit:10;}
	.st12{fill:none;stroke:#52C9BF;stroke-width:6.3691;stroke-miterlimit:10;}
	.st13{fill:#FFFFFF;stroke:#000333;stroke-width:6;stroke-miterlimit:10;}
	.st14{fill:#FFFFFF;stroke:#1D7DFE;stroke-width:6;stroke-miterlimit:10;}
	.st15{fill:#1D7DFE;}
	.st16{fill:none;stroke:#6D6D6D;stroke-width:24;stroke-linecap:round;stroke-miterlimit:10;}
	.st17{fill:none;stroke:#323333;stroke-width:16;stroke-linecap:round;stroke-miterlimit:10;}
	.st18{fill:#323333;}
	.st19{fill:#E95750;}
	.st20{fill:none;stroke:#000000;stroke-width:12;stroke-miterlimit:10;}
	.st21{fill:none;stroke:#000000;stroke-width:12;stroke-linecap:round;stroke-miterlimit:10;}
</style>
<rect x="-0.1" y="0" class="st1" width="200" height="200"/>
<g>
	<path d="M164.8,185.7H33.4c-9.8,0-17.7-8-17.7-17.7V32.4c0-9.8,8-17.7,17.7-17.7h131.4c9.8,0,17.7,8,17.7,17.7V168
		C182.5,177.8,174.6,185.7,164.8,185.7z M33.4,27.7c-2.6,0-4.7,2.1-4.7,4.7V168c0,2.6,2.1,4.7,4.7,4.7h131.4c2.6,0,4.7-2.1,4.7-4.7
		V32.4c0-2.5-2.1-4.7-4.7-4.7H33.4z"/>
</g>
<g>
	<path d="M121.1,119.9H52.4c-3.8,0-7-3.2-7-7V112c0-3.8,3.1-7,7-7h68.6c3.8,0,7,3.2,7,7v0.9C128.1,116.8,124.9,119.9,121.1,119.9z"
		/>
</g>
<g>
	<path d="M123.9,157H49.3c-3.8,0-7-3.1-7-7v-2c0-3.8,3.1-7,7-7h74.6c3.8,0,7,3.1,7,7v2C130.9,153.8,127.7,157,123.9,157z"/>
</g>
<g>
	<polygon points="110.6,16.1 110.6,73.5 130.9,57.5 151.1,73.5 151.1,16.1 	"/>
</g>
</svg>
