<svg id="图层_1" data-name="图层 1" xmlns="http://www.w3.org/2000/svg" viewBox="0 0 200 200"><title>图标</title><path d="M178.87,30.53a12.34,12.34,0,0,0-12.33-12.32H34.74A12.34,12.34,0,0,0,22.41,30.53V67.15a12.21,12.21,0,0,0,2.53,7.44A12.24,12.24,0,0,0,22.41,82v36.61A12.24,12.24,0,0,0,25,126.14a12.24,12.24,0,0,0-2.56,7.49v36.62a12.34,12.34,0,0,0,12.33,12.32h131.8a12.34,12.34,0,0,0,12.33-12.32V133.63a12.24,12.24,0,0,0-2.56-7.49,12.24,12.24,0,0,0,2.56-7.49V82a12.24,12.24,0,0,0-2.53-7.45,12.21,12.21,0,0,0,2.53-7.44Zm-146.46,0a2.33,2.33,0,0,1,2.33-2.32h131.8a2.32,2.32,0,0,1,2.33,2.32V67.15a2.32,2.32,0,0,1-2.33,2.32H34.74a2.33,2.33,0,0,1-2.33-2.32Zm136.46,88.12a2.32,2.32,0,0,1-2.33,2.32H34.74a2.33,2.33,0,0,1-2.33-2.32V82a2.33,2.33,0,0,1,2.33-2.32h131.8A2.32,2.32,0,0,1,168.87,82Zm0,51.6a2.32,2.32,0,0,1-2.33,2.32H34.74a2.33,2.33,0,0,1-2.33-2.32V133.63a2.33,2.33,0,0,1,2.33-2.32h131.8a2.32,2.32,0,0,1,2.33,2.32Z"/><circle cx="49.38" cy="48.84" r="7.32" transform="translate(-9.9 12.65) rotate(-13.28)"/><circle cx="71.35" cy="48.84" r="7.32" transform="translate(-9.31 17.7) rotate(-13.28)"/><rect x="106.93" y="43.4" width="46.06" height="10.89" rx="5.45" ry="5.45"/><circle cx="49.38" cy="100.35" r="7.32" transform="translate(-21.73 14.03) rotate(-13.28)"/><circle cx="71.35" cy="100.35" r="7.32" transform="translate(-21.15 19.08) rotate(-13.28)"/><path d="M147.55,94.9H112.38a5.45,5.45,0,1,0,0,10.89h35.17a5.45,5.45,0,0,0,0-10.89Z"/><circle cx="49.38" cy="151.94" r="7.32" transform="translate(-109.89 139.42) rotate(-67.5)"/><circle cx="71.35" cy="151.94" r="7.32" transform="translate(-96.33 159.71) rotate(-67.5)"/><path d="M147.55,146.49H112.38a5.45,5.45,0,0,0,0,10.9h35.17a5.45,5.45,0,0,0,0-10.9Z"/></svg>