<svg id="图层_1" data-name="图层 1" xmlns="http://www.w3.org/2000/svg" viewBox="0 0 200 200"><title>图标</title><path d="M160.77,141.06H130.92v-13h29.85a5.7,5.7,0,0,0,5.69-5.69v-86a5.69,5.69,0,0,0-5.69-5.68H39.23a5.69,5.69,0,0,0-5.69,5.68v86a5.7,5.7,0,0,0,5.69,5.69h61.58v13H39.23a18.7,18.7,0,0,1-18.68-18.68v-86A18.7,18.7,0,0,1,39.23,17.74H160.77a18.7,18.7,0,0,1,18.68,18.68v86A18.7,18.7,0,0,1,160.77,141.06Z"/><rect x="55.99" y="40.42" width="12.99" height="77.95"/><rect x="96.16" y="128.09" width="12.99" height="47.89"/><rect x="89.67" y="62.44" width="12.99" height="55.94"/><rect x="123.34" y="62.44" width="12.99" height="55.94"/><rect x="93.5" y="131.97" width="12.99" height="87.59" rx="6.5" ry="6.5" transform="translate(275.76 75.76) rotate(90)"/></svg>